<?xml version="1.0" encoding="UTF-8"?>
<svg version="1.1" xmlns="http://www.w3.org/2000/svg" width="225" height="225">
<path d="M0 0 C74.25 0 148.5 0 225 0 C225 74.25 225 148.5 225 225 C150.75 225 76.5 225 0 225 C0 150.75 0 76.5 0 0 Z " fill="#7F7F7E" transform="translate(0,0)"/>
<path d="M0 0 C74.25 0 148.5 0 225 0 C225 36.96 225 73.92 225 112 C150.75 112 76.5 112 0 112 C0 75.04 0 38.08 0 0 Z " fill="#785C30" transform="translate(0,0)"/>
<path d="M0 0 C74.25 0 148.5 0 225 0 C225 18.15 225 36.3 225 55 C150.75 55 76.5 55 0 55 C0 36.85 0 18.7 0 0 Z " fill="#615D5D" transform="translate(0,0)"/>
<path d="M0 0 C74.25 0 148.5 0 225 0 C225 7.92 225 15.84 225 24 C212.62500759 24.03153668 200.25002808 24.05161789 187.875 24.0625 C186.42581491 24.06378403 186.42581491 24.06378403 184.94735336 24.06509399 C143.73403531 24.09710256 102.52423464 23.82359455 61.3125 23.5 C60.16969086 23.49103943 60.16969086 23.49103943 59.00379467 23.48189783 C39.33580944 23.32755905 19.66788793 23.16629845 0 23 C0 15.41 0 7.82 0 0 Z " fill="#6F552C" transform="translate(0,55)"/>
<path d="M0 0 C74.25 0 148.5 0 225 0 C225 5.94 225 11.88 225 18 C150.75 18 76.5 18 0 18 C0 12.06 0 6.12 0 0 Z " fill="#7B6442" transform="translate(0,37)"/>
<path d="M0 0 C74.25 0 148.5 0 225 0 C225 5.28 225 10.56 225 16 C174.58586103 16.57373435 124.17199539 17.10490827 73.75412369 17.12338257 C70.91146738 17.12497951 68.06881955 17.12851846 65.22616577 17.13256836 C43.4603451 17.16024673 21.74863579 16.90955998 0 16 C0 10.72 0 5.44 0 0 Z " fill="#725D59" transform="translate(0,0)"/>
<path d="M0 0 C20.43749441 -0.03073349 40.8749863 -0.05111981 61.3125 -0.0625 C62.0700826 -0.0629343 62.8276652 -0.06336861 63.60820484 -0.06381607 C105.0332715 -0.08692178 146.45236589 -0.00923828 187.875 0.5 C188.84845493 0.51195782 189.82190987 0.52391563 190.82486343 0.53623581 C202.21677919 0.67734283 213.60844931 0.83206998 225 1 C225 5.62 225 10.24 225 15 C150.75 15 76.5 15 0 15 C0 10.05 0 5.1 0 0 Z " fill="#765B32" transform="translate(0,78)"/>
<path d="M0 0 C74.25 0 148.5 0 225 0 C225 2.31 225 4.62 225 7 C174.58586103 7.57373435 124.17199539 8.10490827 73.75412369 8.12338257 C70.91146738 8.12497951 68.06881955 8.12851846 65.22616577 8.13256836 C43.46159379 8.16024514 21.74703876 7.92776017 0 7 C0 4.69 0 2.38 0 0 Z " fill="#574744" transform="translate(0,9)"/>
<path d="M0 0 C74.25 0 148.5 0 225 0 C225 2.31 225 4.62 225 7 C211.12531795 7.21305267 197.25033284 7.39725659 183.375 7.5625 C182.30701046 7.57523327 181.23902092 7.58796654 180.13866806 7.60108566 C139.02396427 8.08216504 97.92652913 7.93393238 56.8125 7.5625 C56.10181083 7.55610205 55.39112165 7.5497041 54.65889645 7.54311228 C36.43909331 7.3787591 18.21946652 7.19833417 0 7 C0 4.69 0 2.38 0 0 Z " fill="#674E29" transform="translate(0,93)"/>
<path d="M0 0 C74.25 0 148.5 0 225 0 C225 2.31 225 4.62 225 7 C150.75 7 76.5 7 0 7 C0 4.69 0 2.38 0 0 Z " fill="#503A16" transform="translate(0,55)"/>
<path d="M0 0 C74.25 0 148.5 0 225 0 C225 2.31 225 4.62 225 7 C150.75 7 76.5 7 0 7 C0 4.69 0 2.38 0 0 Z " fill="#7F7B7B" transform="translate(0,30)"/>
<path d="M0 0 C74.25 0 148.5 0 225 0 C225 1.65 225 3.3 225 5 C150.75 5 76.5 5 0 5 C0 3.35 0 1.7 0 0 Z " fill="#8E682E" transform="translate(0,62)"/>
<path d="M0 0 C74.25 0 148.5 0 225 0 C225 1.65 225 3.3 225 5 C198.27 5 171.54 5 144 5 C144.66 4.67 145.32 4.34 146 4 C146 3.34 146 2.68 146 2 C144.8304916 2.10630564 144.8304916 2.10630564 143.63735676 2.21475887 C135.51102724 2.90344439 127.46786424 3.1380144 119.31518555 3.11352539 C118.01606232 3.11367142 116.71693909 3.11381744 115.37844849 3.1139679 C111.86072115 3.11425153 108.34302881 3.10842587 104.82530951 3.10139394 C101.13246834 3.09508728 97.43962612 3.09455087 93.7467804 3.09336853 C86.77380174 3.09027657 79.80083901 3.08209234 72.82786733 3.07201904 C64.88092363 3.06079112 56.93397911 3.05533072 48.98702943 3.05032361 C32.65801034 3.03990764 16.32900721 3.0223501 0 3 C0 2.01 0 1.02 0 0 Z " fill="#9A8052" transform="translate(0,112)"/>
<path d="M0 0 C74.25 0 148.5 0 225 0 C225 0.99 225 1.98 225 3 C213.37525253 3.18587881 201.7502521 3.34925971 190.125 3.5 C188.75221453 3.51781588 188.75221453 3.51781588 187.35169601 3.53599167 C146.08900393 4.06387631 104.82774687 4.08538509 63.5625 4.0625 C62.77503545 4.06207577 61.9875709 4.06165154 61.17624378 4.06121445 C40.78415058 4.05004399 20.39207479 4.02978875 0 4 C0 2.68 0 1.36 0 0 Z " fill="#716D6D" transform="translate(0,37)"/>
<path d="M0 0 C74.25 0 148.5 0 225 0 C225 0.99 225 1.98 225 3 C150.75 3 76.5 3 0 3 C0 2.01 0 1.02 0 0 Z " fill="#A9A4A4" transform="translate(0,30)"/>
<path d="M0 0 C74.25 0 148.5 0 225 0 C225 0.99 225 1.98 225 3 C150.75 3 76.5 3 0 3 C0 2.01 0 1.02 0 0 Z " fill="#977B74" transform="translate(0,0)"/>
<path d="M0 0 C74.25 0 148.5 0 225 0 C225 0.99 225 1.98 225 3 C150.75 3 76.5 3 0 3 C0 2.01 0 1.02 0 0 Z " fill="#A39390" transform="translate(0,16)"/>
<path d="M0 0 C74.25 0 148.5 0 225 0 C225 0.99 225 1.98 225 3 C150.75 3 76.5 3 0 3 C0 2.01 0 1.02 0 0 Z " fill="#A6A3A3" transform="translate(0,22)"/>
<path d="M0 0 C20.43749353 -0.03105095 40.8749868 -0.05111981 61.3125 -0.0625 C62.0700826 -0.0629343 62.8276652 -0.06336861 63.60820484 -0.06381607 C105.0332715 -0.08692178 146.45236589 -0.00923828 187.875 0.5 C188.84845493 0.51195782 189.82190987 0.52391563 190.82486343 0.53623581 C202.21677246 0.67734275 213.60847607 0.83060526 225 1 C225 1.66 225 2.32 225 3 C150.75 3 76.5 3 0 3 C0 2.01 0 1.02 0 0 Z " fill="#94723C" transform="translate(0,78)"/>
<path d="M0 0 C74.25 0 148.5 0 225 0 C225 0.66 225 1.32 225 2 C174.58586103 2.57373435 124.17199539 3.10490827 73.75412369 3.12338257 C70.91146738 3.12497951 68.06881955 3.12851846 65.22616577 3.13256836 C43.46159379 3.16024514 21.74703876 2.92776017 0 2 C0 1.34 0 0.68 0 0 Z " fill="#72605C" transform="translate(0,14)"/>
<path d="M0 0 C48.84 0 97.68 0 148 0 C148 0.66 148 1.32 148 2 C132.03875313 3.03454698 116.11528618 3.13513154 100.12519741 3.10139394 C96.59121847 3.09503837 93.05723817 3.09454714 89.52325439 3.09336853 C82.86571052 3.0902905 76.20818354 3.08212595 69.55064702 3.07201904 C61.95661786 3.0607467 54.36258778 3.05531976 46.7685523 3.05032361 C31.17902516 3.03993936 15.58951478 3.02241012 0 3 C0 2.01 0 1.02 0 0 Z " fill="#9D7130" transform="translate(0,56)"/>
<path d="M0 0 C0 0.66 0 1.32 0 2 C0.99 2.33 1.98 2.66 3 3 C-45.18 3 -93.36 3 -143 3 C-143 2.34 -143 1.68 -143 1 C-129.22773201 0.86776599 -115.45544864 0.73727328 -101.68314457 0.60884857 C-95.28427908 0.54912869 -88.88541977 0.48886608 -82.48657227 0.42724609 C-27.40809464 -0.10239907 -27.40809464 -0.10239907 0 0 Z " fill="#877A78" transform="translate(143,42)"/>
</svg>
