<?xml version="1.0" encoding="UTF-8"?>
<svg version="1.1" xmlns="http://www.w3.org/2000/svg" width="251" height="201">
<path d="M0 0 C82.83 0 165.66 0 251 0 C251 66.33 251 132.66 251 201 C168.17 201 85.34 201 0 201 C0 134.67 0 68.34 0 0 Z " fill="#FEFEFE" transform="translate(0,0)"/>
<path d="M0 0 C0.98871094 -0.01417969 1.97742188 -0.02835937 2.99609375 -0.04296875 C5.5625 0.1875 5.5625 0.1875 7.5625 2.1875 C7.20160592 5.67614279 5.4214578 8.27782693 3.5625 11.1875 C4.8 11.27 6.0375 11.3525 7.3125 11.4375 C16.04285026 12.41518907 24.17749006 15.48794822 31.5625 20.1875 C31.5625 20.8475 31.5625 21.5075 31.5625 22.1875 C22.04843303 26.49575674 13.50572945 25.79556018 3.5625 23.1875 C3.5625 22.8575 3.5625 22.5275 3.5625 22.1875 C9.52783774 20.64093096 15.5115696 19.35304807 21.5625 18.1875 C16.0597339 17.96738936 11.78669829 18.24361227 6.5625 20.1875 C5.2425 20.1875 3.9225 20.1875 2.5625 20.1875 C2.5625 20.8475 2.5625 21.5075 2.5625 22.1875 C1.39332031 22.22488281 0.22414062 22.26226562 -0.98046875 22.30078125 C-2.52867675 22.3664628 -4.07685242 22.43290939 -5.625 22.5 C-6.77838867 22.53383789 -6.77838867 22.53383789 -7.95507812 22.56835938 C-12.58004148 22.78670528 -15.60799934 23.32496744 -19.4375 26.1875 C-18.33148438 26.14625 -17.22546875 26.105 -16.0859375 26.0625 C-10.03330657 26.0625 -4.27972999 27.49137421 1.609375 28.765625 C10.41734174 30.57371201 19.41745809 31.79516291 27.5625 27.1875 C30.41804017 24.75022118 30.41804017 24.75022118 32.5625 22.1875 C33.2225 21.5275 33.8825 20.8675 34.5625 20.1875 C35.0575 21.1775 35.0575 21.1775 35.5625 22.1875 C37.36190838 24.88661256 39.03783138 26.67189459 41.375 28.875 C51.04389905 38.38422916 54.49784762 50.28391224 57.16796875 63.28515625 C57.45283624 64.65872524 57.79646977 66.02055162 58.17578125 67.37109375 C58.30339844 67.97050781 58.43101562 68.56992188 58.5625 69.1875 C57.5625 70.1875 57.5625 70.1875 54.69506836 70.30102539 C53.44346924 70.29578857 52.19187012 70.29055176 50.90234375 70.28515625 C49.90564415 70.28303383 49.90564415 70.28303383 48.8888092 70.28086853 C46.75916101 70.27525518 44.62961661 70.26270054 42.5 70.25 C41.05924631 70.24498671 39.61849097 70.24042351 38.17773438 70.23632812 C34.63925042 70.22613076 31.10099187 70.2065583 27.5625 70.1875 C27.5625 61.2775 27.5625 52.3675 27.5625 43.1875 C25.809375 44.63125 24.05625 46.075 22.25 47.5625 C19.40347823 49.9066944 16.63135174 52.14159884 13.5625 54.1875 C13.5625 50.5575 13.5625 46.9275 13.5625 43.1875 C12.80324219 43.81398437 12.04398437 44.44046875 11.26171875 45.0859375 C10.26785156 45.90320313 9.27398437 46.72046875 8.25 47.5625 C6.77080078 48.78066406 6.77080078 48.78066406 5.26171875 50.0234375 C2.5625 52.1875 2.5625 52.1875 -0.4375 54.1875 C-0.4375 50.5575 -0.4375 46.9275 -0.4375 43.1875 C-1.19675781 43.81398437 -1.95601562 44.44046875 -2.73828125 45.0859375 C-3.73214844 45.90320313 -4.72601563 46.72046875 -5.75 47.5625 C-6.73613281 48.37460938 -7.72226563 49.18671875 -8.73828125 50.0234375 C-11.4375 52.1875 -11.4375 52.1875 -14.4375 54.1875 C-15.63913544 50.58259368 -15.75339583 47.13549822 -15.9375 43.375 C-16.17586402 38.58564879 -16.54818303 33.90829092 -17.4375 29.1875 C-20.0775 28.8575 -22.7175 28.5275 -25.4375 28.1875 C-26.0975 42.0475 -26.7575 55.9075 -27.4375 70.1875 C-37.3375 70.1875 -47.2375 70.1875 -57.4375 70.1875 C-57.7675 68.8675 -58.0975 67.5475 -58.4375 66.1875 C-57.9425 65.6925 -57.9425 65.6925 -57.4375 65.1875 C-57.07073686 63.00207668 -56.719673 60.81401594 -56.375 58.625 C-53.63193691 43.61359177 -45.91923807 30.54650104 -33.625 21.4375 C-24.5879224 15.45442712 -14.48380484 10.63518476 -3.4375 11.1875 C-4.118125 10.28 -4.79875 9.3725 -5.5 8.4375 C-7.4375 5.1875 -7.4375 5.1875 -7.25 2.875 C-5.57258384 -0.60886434 -3.68867356 0.02398357 0 0 Z " fill="#162335" transform="translate(125.4375,65.8125)"/>
<path d="M0 0 C0.495 0.66 0.99 1.32 1.5 2 C3.5383781 4.44605372 5.5710388 6.51153664 7.875 8.6875 C17.46667647 18.24351968 20.93801954 30.10942225 23.60546875 43.09765625 C23.89033624 44.47122524 24.23396977 45.83305162 24.61328125 47.18359375 C24.74089844 47.78300781 24.86851562 48.38242188 25 49 C24 50 24 50 21.13256836 50.11352539 C19.88096924 50.10828857 18.62937012 50.10305176 17.33984375 50.09765625 C16.34314415 50.09553383 16.34314415 50.09553383 15.3263092 50.09336853 C13.19666101 50.08775518 11.06711661 50.07520054 8.9375 50.0625 C7.49674631 50.05748671 6.05599097 50.05292351 4.61523438 50.04882812 C1.07675042 50.03863076 -2.46150813 50.0190583 -6 50 C-6 41.09 -6 32.18 -6 23 C-7.753125 24.44375 -9.50625 25.8875 -11.3125 27.375 C-14.15902177 29.7191944 -16.93114826 31.95409884 -20 34 C-20 30.37 -20 26.74 -20 23 C-21.65 23.66 -23.3 24.32 -25 25 C-25.66 24.67 -26.32 24.34 -27 24 C-27 22.35 -27 20.7 -27 19 C-27.66 19 -28.32 19 -29 19 C-29.54372951 15.94152152 -30 13.11227195 -30 10 C-28.40671875 10.05220703 -28.40671875 10.05220703 -26.78125 10.10546875 C-14.0041027 10.5435599 -14.0041027 10.5435599 -3.0625 4.4375 C-0.99726445 2.19148855 -0.99726445 2.19148855 0 0 Z " fill="#122235" transform="translate(159,86)"/>
<path d="M0 0 C0.66 0.33 1.32 0.66 2 1 C2 1.66 2 2.32 2 3 C2.99 3.33 3.98 3.66 5 4 C5.33 3.34 5.66 2.68 6 2 C7.875 0.8125 7.875 0.8125 10 0 C10.99 0.33 11.98 0.66 13 1 C12.37361187 15.66876118 11.70796843 30.33493977 11 45 C1.1 45 -8.8 45 -19 45 C-19.33 43.68 -19.66 42.36 -20 41 C-19.505 40.505 -19.505 40.505 -19 40 C-18.63323686 37.81457668 -18.282173 35.62651594 -17.9375 33.4375 C-15.582443 20.54945448 -9.48132337 9.0778628 0 0 Z " fill="#132336" transform="translate(87,91)"/>
<path d="M0 0 C0.98871094 -0.01417969 1.97742188 -0.02835937 2.99609375 -0.04296875 C5.5625 0.1875 5.5625 0.1875 7.5625 2.1875 C7.20160592 5.67614279 5.4214578 8.27782693 3.5625 11.1875 C4.8 11.27 6.0375 11.3525 7.3125 11.4375 C16.04285026 12.41518907 24.17749006 15.48794822 31.5625 20.1875 C31.5625 20.8475 31.5625 21.5075 31.5625 22.1875 C22.04843303 26.49575674 13.50572945 25.79556018 3.5625 23.1875 C3.5625 22.8575 3.5625 22.5275 3.5625 22.1875 C9.52783774 20.64093096 15.5115696 19.35304807 21.5625 18.1875 C16.0597339 17.96738936 11.78669829 18.24361227 6.5625 20.1875 C5.2425 20.1875 3.9225 20.1875 2.5625 20.1875 C2.5625 20.8475 2.5625 21.5075 2.5625 22.1875 C-4.3675 21.6925 -4.3675 21.6925 -11.4375 21.1875 C-11.4375 20.8575 -11.4375 20.5275 -11.4375 20.1875 C-10.33341797 20.11402344 -10.33341797 20.11402344 -9.20703125 20.0390625 C-8.23121094 19.96429688 -7.25539063 19.88953125 -6.25 19.8125 C-5.28707031 19.74289063 -4.32414062 19.67328125 -3.33203125 19.6015625 C-0.42241062 19.18534147 1.89140774 18.38875904 4.5625 17.1875 C-8.60118143 16.38126206 -8.60118143 16.38126206 -19.875 22.375 C-20.390625 22.973125 -20.90625 23.57125 -21.4375 24.1875 C-22.4275 23.8575 -23.4175 23.5275 -24.4375 23.1875 C-24.1075 20.8775 -23.7775 18.5675 -23.4375 16.1875 C-16.74633089 13.12664605 -10.79845182 11.50073199 -3.4375 11.1875 C-4.118125 10.28 -4.79875 9.3725 -5.5 8.4375 C-7.4375 5.1875 -7.4375 5.1875 -7.25 2.875 C-5.57258384 -0.60886434 -3.68867356 0.02398357 0 0 Z " fill="#131D2C" transform="translate(125.4375,65.8125)"/>
<path d="M0 0 C0.495 0.99 0.495 0.99 1 2 C0.25234375 2.12117188 -0.4953125 2.24234375 -1.265625 2.3671875 C-2.25046875 2.53476563 -3.2353125 2.70234375 -4.25 2.875 C-5.22453125 3.03742188 -6.1990625 3.19984375 -7.203125 3.3671875 C-9.77264117 3.94855848 -11.72071056 4.70840265 -14 6 C-12.02 6.66 -10.04 7.32 -8 8 C-8.66 9.32 -9.32 10.64 -10 12 C-7.36 12.33 -4.72 12.66 -2 13 C-2 13.33 -2 13.66 -2 14 C-10.07035667 14.31206535 -17.28935796 13.13910638 -25.14453125 11.421875 C-31.1818995 10.1696801 -36.83785499 9.76172157 -43 10 C-39.4418405 6.3684892 -37.04909933 4.90327168 -31.890625 4.8046875 C-30.34362896 4.81790969 -28.79669315 4.84165504 -27.25 4.875 C-26.06083984 4.88853516 -26.06083984 4.88853516 -24.84765625 4.90234375 C-22.89830719 4.92582988 -20.94911425 4.96169863 -19 5 C-19 4.34 -19 3.68 -19 3 C-12.43345544 0.6969113 -6.96327638 -0.33693273 0 0 Z " fill="#E8ECEF" transform="translate(147,83)"/>
<path d="M0 0 C1.32 0 2.64 0 4 0 C3.814375 0.845625 3.62875 1.69125 3.4375 2.5625 C2.9605719 6.30979222 3.41265936 9.28017593 4 13 C4.1172574 16.4004645 4.11945533 19.41599616 3.4375 22.75 C2.77859647 25.15493756 2.77859647 25.15493756 4 28 C4.068991 30.06145107 4.08467727 32.12501401 4.0625 34.1875 C4.05347656 35.27417969 4.04445313 36.36085937 4.03515625 37.48046875 C4.02355469 38.31191406 4.01195312 39.14335937 4 40 C2.68 40 1.36 40 0 40 C0.03255208 37.98177083 0.06510417 35.96354167 0.09765625 33.9453125 C0.12649242 31.91814596 0.12649242 31.91814596 -1 30 C-1 29.01 -1 28.02 -1 27 C-1.33 26.01 -1.66 25.02 -2 24 C-2.66 24 -3.32 24 -4 24 C-4 18.06 -4 12.12 -4 6 C-2.68 5.34 -1.36 4.68 0 4 C0 2.68 0 1.36 0 0 Z " fill="#F8F8F8" transform="translate(4,142)"/>
<path d="M0 0 C0.66 0 1.32 0 2 0 C2.33 0.66 2.66 1.32 3 2 C3.99 2.66 4.98 3.32 6 4 C5.34 4 4.68 4 4 4 C4.185625 5.2375 4.37125 6.475 4.5625 7.75 C4.94711223 10.76279577 5.0874594 13.10010827 4 16 C5.32 16.33 6.64 16.66 8 17 C8 21.62 8 26.24 8 31 C1.125 30.125 1.125 30.125 0 29 C-0.08775605 26.85441173 -0.10695219 24.70595579 -0.09765625 22.55859375 C-0.09443359 21.25341797 -0.09121094 19.94824219 -0.08789062 18.60351562 C-0.07953401 17.2148431 -0.07106905 15.82617123 -0.0625 14.4375 C-0.05748666 13.04492344 -0.05292347 11.65234519 -0.04882812 10.25976562 C-0.03699434 6.8398013 -0.0205088 3.41992156 0 0 Z " fill="#F6F6F6" transform="translate(0,166)"/>
<path d="M0 0 C0.33 0.66 0.66 1.32 1 2 C1.66 2.33 2.32 2.66 3 3 C2 5 2 5 1 6 C5.27100573 6 6.79181342 3.68440102 10 1 C14.00705062 -0.34522414 18.070747 -0.11049495 22.25 -0.0625 C22.99507812 -0.05798828 23.74015625 -0.05347656 24.5078125 -0.04882812 C26.3385764 -0.03709246 28.16929873 -0.0191585 30 0 C27.53258609 2.64107354 25.42559084 3.79641403 22 5 C22 5.33 22 5.66 22 6 C21.2265625 6.02578125 20.453125 6.0515625 19.65625 6.078125 C12.73183653 6.45519702 7.96474358 7.44409517 2 11 C2 10.34 2 9.68 2 9 C-0.64 8.67 -3.28 8.34 -6 8 C-6.33 8.66 -6.66 9.32 -7 10 C-6.875 6.6875 -6.875 6.6875 -6 3 C-2.9375 1.0625 -2.9375 1.0625 0 0 Z " fill="#252F3C" transform="translate(101,82)"/>
<path d="M0 0 C0.33 0 0.66 0 1 0 C1.33 6.93 1.66 13.86 2 21 C2.66 20.34 3.32 19.68 4 19 C4.99 19.99 5.98 20.98 7 22 C7 21.34 7 20.68 7 20 C9.54232342 19.91847656 12.08199202 19.85926284 14.625 19.8125 C15.33785156 19.78736328 16.05070312 19.76222656 16.78515625 19.73632812 C21.62276416 19.66975554 24.74738338 20.44440547 29 23 C29 23.33 29 23.66 29 24 C19.43 24 9.86 24 0 24 C0 16.08 0 8.16 0 0 Z " fill="#0F1E34" transform="translate(153,111)"/>
<path d="M0 0 C0.33 0 0.66 0 1 0 C1 7.59 1 15.18 1 23 C-7.58 23 -16.16 23 -25 23 C-23.68 22.34 -22.36 21.68 -21 21 C-20.67 20.34 -20.34 19.68 -20 19 C-13.4 19 -6.8 19 0 19 C0 12.73 0 6.46 0 0 Z " fill="#0C172C" transform="translate(97,112)"/>
<path d="M0 0 C0.66 0 1.32 0 2 0 C0.64844718 4.42326378 -1.19890438 6.40412982 -5 9 C-8.42232972 10.14077657 -11.08673217 10.09815117 -14.6875 10.0625 C-16.45673828 10.04896484 -16.45673828 10.04896484 -18.26171875 10.03515625 C-19.16535156 10.02355469 -20.06898438 10.01195313 -21 10 C-20.625 8.0625 -20.625 8.0625 -20 6 C-17.28690485 4.64345242 -14.68810998 4.43496951 -11.6875 4 C-7.7656479 3.42759741 -3.87915582 2.81513218 0 2 C0 1.34 0 0.68 0 0 Z " fill="#F7FAFB" transform="translate(157,86)"/>
<path d="M0 0 C-0.66666667 2.66666667 -1.33333333 5.33333333 -2 8 C-2.66 8 -3.32 8 -4 8 C-4.66 10.31 -5.32 12.62 -6 15 C-8.31 15 -10.62 15 -13 15 C-13 14.01 -13 13.02 -13 12 C-11.68 12 -10.36 12 -9 12 C-9.66 11.67 -10.32 11.34 -11 11 C-11.625 8.9375 -11.625 8.9375 -12 7 C-10.76125579 5.821389 -9.5085199 4.65747085 -8.25 3.5 C-7.55390625 2.8503125 -6.8578125 2.200625 -6.140625 1.53125 C-4 0 -4 0 0 0 Z " fill="#F5F7F9" transform="translate(152,112)"/>
<path d="M0 0 C0.74507812 0.00451172 1.49015625 0.00902344 2.2578125 0.01367188 C4.0885764 0.02540754 5.91929873 0.0433415 7.75 0.0625 C4.91079605 3.17210433 2.87828342 3.98681391 -1.39453125 4.2734375 C-3.83181918 4.38245357 -6.26932752 4.48665268 -8.70703125 4.5859375 C-12.45724055 5.0903758 -14.9862231 6.19320052 -18.25 8.0625 C-16.85440273 4.6898066 -15.3578412 2.98204898 -12.25 1.0625 C-8.1934445 -0.17385845 -4.20203464 -0.04825658 0 0 Z " fill="#F7FEFD" transform="translate(123.25,81.9375)"/>
<path d="M0 0 C0.66 0 1.32 0 2 0 C2.33 0.66 2.66 1.32 3 2 C3.99 2.66 4.98 3.32 6 4 C5.34 4 4.68 4 4 4 C4.20625 5.216875 4.4125 6.43375 4.625 7.6875 C5.09963844 11.34806773 4.76581384 13.67611512 3 17 C2.01 17 1.02 17 0 17 C0 11.39 0 5.78 0 0 Z " fill="#FAFAFA" transform="translate(0,166)"/>
<path d="M0 0 C0.33 0.66 0.66 1.32 1 2 C3.31 2 5.62 2 8 2 C7.67 2.99 7.34 3.98 7 5 C14.26 5.33 21.52 5.66 29 6 C29 6.33 29 6.66 29 7 C19.1 7 9.2 7 -1 7 C-1.33 5.68 -1.66 4.36 -2 3 C-1.34 2.01 -0.68 1.02 0 0 Z " fill="#394355" transform="translate(69,129)"/>
<path d="M0 0 C1.87603978 2.81405967 2.49092802 4.40924666 3.1875 7.625 C3.45626953 8.81996094 3.45626953 8.81996094 3.73046875 10.0390625 C3.81941406 10.68617188 3.90835938 11.33328125 4 12 C3 13 3 13 0.13256836 13.11352539 C-1.11903076 13.10828857 -2.37062988 13.10305176 -3.66015625 13.09765625 C-4.65685585 13.09553383 -4.65685585 13.09553383 -5.6736908 13.09336853 C-7.80333899 13.08775518 -9.93288339 13.07520054 -12.0625 13.0625 C-13.50325369 13.05748671 -14.94400903 13.05292351 -16.38476562 13.04882812 C-19.92321102 13.03778145 -23.46159539 13.02050792 -27 13 C-27 12.67 -27 12.34 -27 12 C-18.42 11.67 -9.84 11.34 -1 11 C-1.33 10.01 -1.66 9.02 -2 8 C-1.34 8 -0.68 8 0 8 C-0.33 7.01 -0.66 6.02 -1 5 C-0.5625 2.3125 -0.5625 2.3125 0 0 Z " fill="#434C57" transform="translate(180,123)"/>
<path d="M0 0 C0.33 0 0.66 0 1 0 C1.33 6.93 1.66 13.86 2 21 C2.66 20.34 3.32 19.68 4 19 C4.4122583 19.4844458 4.8245166 19.9688916 5.24926758 20.46801758 C7.33331874 22.29167133 8.28540863 22.40922589 11.01171875 22.51171875 C11.76904297 22.54716797 12.52636719 22.58261719 13.30664062 22.61914062 C14.09232422 22.64169922 14.87800781 22.66425781 15.6875 22.6875 C16.48478516 22.72166016 17.28207031 22.75582031 18.10351562 22.79101562 C20.06851904 22.87338104 22.03423696 22.93837067 24 23 C24 23.33 24 23.66 24 24 C16.08 24 8.16 24 0 24 C0 16.08 0 8.16 0 0 Z " fill="#071120" transform="translate(153,111)"/>
<path d="M0 0 C0.99 0.66 1.98 1.32 3 2 C2.67 3.32 2.34 4.64 2 6 C0.35 6.33 -1.3 6.66 -3 7 C-2.67 7.99 -2.34 8.98 -2 10 C-3.32 10.33 -4.64 10.66 -6 11 C-6.96706319 7.99135897 -7.27677226 5.94639752 -6 3 C-4.0625 1.8125 -4.0625 1.8125 -2 1 C-1.34 0.67 -0.68 0.34 0 0 Z " fill="#132539" transform="translate(130,66)"/>
<path d="M0 0 C0.33 3.96 0.66 7.92 1 12 C0.34 12 -0.32 12 -1 12 C-1 11.34 -1 10.68 -1 10 C-2.65 9.67 -4.3 9.34 -6 9 C-6 8.34 -6 7.68 -6 7 C-7.32 7.33 -8.64 7.66 -10 8 C-8.33333333 6.33333333 -6.66666667 4.66666667 -5 3 C-4.443125 2.401875 -3.88625 1.80375 -3.3125 1.1875 C-2 0 -2 0 0 0 Z " fill="#F5F5FA" transform="translate(139,109)"/>
<path d="M0 0 C0 0.99 0 1.98 0 3 C-3.33333333 3 -6.66666667 3 -10 3 C-10.99 3.495 -10.99 3.495 -12 4 C-11.67 1.69 -11.34 -0.62 -11 -3 C-6.57716576 -5.12296044 -3.74455635 -2.37635307 0 0 Z " fill="#C7C8CB" transform="translate(116,124)"/>
<path d="M0 0 C0.66 0 1.32 0 2 0 C2 2.31 2 4.62 2 7 C0.02 6.34 -1.96 5.68 -4 5 C-2.71937515 3.2925002 -1.38232443 1.62626404 0 0 Z M-6 6 C-5.01 6.99 -4.02 7.98 -3 9 C-3.99 9 -4.98 9 -6 9 C-6.66 9.66 -7.32 10.32 -8 11 C-8.99 11.66 -9.98 12.32 -11 13 C-11.66 12.67 -12.32 12.34 -13 12 C-12.67 10.68 -12.34 9.36 -12 8 C-11.67 8.66 -11.34 9.32 -11 10 C-9.35 8.68 -7.7 7.36 -6 6 Z " fill="#E7F0F8" transform="translate(123,109)"/>
<path d="M0 0 C0.33 0.66 0.66 1.32 1 2 C0.29875 2.12117188 -0.4025 2.24234375 -1.125 2.3671875 C-5.63328894 3.16348854 -10.08282837 3.9760742 -14.5 5.1875 C-18 6 -18 6 -21 5 C-20.34 5 -19.68 5 -19 5 C-19 4.34 -19 3.68 -19 3 C-12.43345544 0.6969113 -6.96327638 -0.33693273 0 0 Z " fill="#CCD3DC" transform="translate(147,83)"/>
<path d="M0 0 C0 1.32 0 2.64 0 4 C-5.84340558 5.24327778 -10.26696495 4.57300962 -16 3 C-16 2.67 -16 2.34 -16 2 C-14.01432292 1.51171875 -12.02864583 1.0234375 -10.04296875 0.53515625 C-6.08046074 -0.50282386 -4.04461339 -0.98382488 0 0 Z " fill="#232F40" transform="translate(145,86)"/>
<path d="M0 0 C1.65 0 3.3 0 5 0 C5 4.62 5 9.24 5 14 C3.68 14 2.36 14 1 14 C1.03255208 11.98177083 1.06510417 9.96354167 1.09765625 7.9453125 C1.12649242 5.91814596 1.12649242 5.91814596 0 4 C0 2.66666667 0 1.33333333 0 0 Z " fill="#BABABA" transform="translate(3,168)"/>
<path d="M0 0 C-0.04125 0.721875 -0.0825 1.44375 -0.125 2.1875 C0.00921305 5.20729369 0.75170619 7.26935729 2 10 C0.35 11.32 -1.3 12.64 -3 14 C-3 10.37 -3 6.74 -3 3 C-3.66 2.67 -4.32 2.34 -5 2 C-1.125 0 -1.125 0 0 0 Z " fill="#0C1727" transform="translate(128,106)"/>
<path d="M0 0 C1.32 0 2.64 0 4 0 C4.08159574 4.16138263 3.98248524 7.9472484 3 12 C2.01 11.67 1.02 11.34 0 11 C0 7.37 0 3.74 0 0 Z " fill="#A2A2A2" transform="translate(4,155)"/>
<path d="M0 0 C0.66 0.66 1.32 1.32 2 2 C2.99 1.34 3.98 0.68 5 0 C5.33 0.99 5.66 1.98 6 3 C5.01 3.33 4.02 3.66 3 4 C3 4.66 3 5.32 3 6 C3.99 6.33 4.98 6.66 6 7 C6 7.99 6 8.98 6 10 C4.02 10 2.04 10 0 10 C0 6.7 0 3.4 0 0 Z " fill="#ADB1B5" transform="translate(124,117)"/>
<path d="M0 0 C5.28 0 10.56 0 16 0 C12.86400308 3.13599692 11.64263111 3.94057051 7.30078125 4.09765625 C6.31464844 4.08605469 5.32851562 4.07445313 4.3125 4.0625 C3.31863281 4.05347656 2.32476562 4.04445313 1.30078125 4.03515625 C0.16189453 4.01775391 0.16189453 4.01775391 -1 4 C-1 3.67 -1 3.34 -1 3 C1.64 2.67 4.28 2.34 7 2 C4.69 1.67 2.38 1.34 0 1 C0 0.67 0 0.34 0 0 Z " fill="#C0C7CF" transform="translate(115,82)"/>
<path d="M0 0 C4.95 0.33 9.9 0.66 15 1 C14.67 1.99 14.34 2.98 14 4 C15.32 4.66 16.64 5.32 18 6 C11.84765625 5.4140625 11.84765625 5.4140625 10 5 C9.67 4.34 9.34 3.68 9 3 C8.071875 3.061875 7.14375 3.12375 6.1875 3.1875 C3 3 3 3 0 0 Z " fill="#101F34" transform="translate(131,96)"/>
<path d="M0 0 C1.32 0 2.64 0 4 0 C3.814375 0.86625 3.62875 1.7325 3.4375 2.625 C2.99332067 6.05152628 3.28045508 8.64212371 4 12 C2.68 12 1.36 12 0 12 C0.2784375 11.1028125 0.2784375 11.1028125 0.5625 10.1875 C1.22093687 7.83591238 1.22093687 7.83591238 0 5 C-0.03874921 3.33378384 -0.0450286 1.66605828 0 0 Z " fill="#A1A1A1" transform="translate(4,142)"/>
<path d="M0 0 C0.66 0 1.32 0 2 0 C2 7.92 2 15.84 2 24 C1.67 24 1.34 24 1 24 C0.93941406 22.96359375 0.87882813 21.9271875 0.81640625 20.859375 C0.73196629 19.48957127 0.64732003 18.11978025 0.5625 16.75 C0.52318359 16.06808594 0.48386719 15.38617188 0.44335938 14.68359375 C0.15524492 10.11808782 -0.56303839 6.31088484 -2 2 C-1.34 1.34 -0.68 0.68 0 0 Z " fill="#E7EEF7" transform="translate(151,109)"/>
<path d="M0 0 C0.66 0.33 1.32 0.66 2 1 C2.4140625 3.94140625 2.4140625 3.94140625 2.625 7.5625 C2.69976562 8.76003906 2.77453125 9.95757812 2.8515625 11.19140625 C2.90054687 12.11824219 2.94953125 13.04507813 3 14 C1.68 13.67 0.36 13.34 -1 13 C-1 10.22003893 -0.78702071 7.57507433 -0.5 4.8125 C-0.4071875 3.91144531 -0.314375 3.01039063 -0.21875 2.08203125 C-0.1465625 1.39496094 -0.074375 0.70789063 0 0 Z " fill="#9E9E9E" transform="translate(5,183)"/>
<path d="M0 0 C0.66 0.33 1.32 0.66 2 1 C1.34 2.32 0.68 3.64 0 5 C0.66 5 1.32 5 2 5 C1.67 5.66 1.34 6.32 1 7 C-0.65 7 -2.3 7 -4 7 C-4 7.33 -4 7.66 -4 8 C-1.03 8.495 -1.03 8.495 2 9 C2 9.33 2 9.66 2 10 C-1.3 10 -4.6 10 -8 10 C-7.34 9.67 -6.68 9.34 -6 9 C-5.7834375 8.0409375 -5.7834375 8.0409375 -5.5625 7.0625 C-5 5 -5 5 -2 3 C-2 2.34 -2 1.68 -2 1 C-1.34 0.67 -0.68 0.34 0 0 Z " fill="#081428" transform="translate(129,72)"/>
<path d="M0 0 C2 1 2 1 3 2 C5.05396726 1.59070014 5.05396726 1.59070014 7 1 C7 1.99 7 2.98 7 4 C2.65714286 8 2.65714286 8 0 8 C0 5.36 0 2.72 0 0 Z " fill="#1D2435" transform="translate(140,110)"/>
<path d="M0 0 C0.33 0 0.66 0 1 0 C1 4.62 1 9.24 1 14 C1.66 14 2.32 14 3 14 C2.42655063 16.86724686 2.1385485 17.8614515 0 20 C0 13.4 0 6.8 0 0 Z " fill="#E7E8F4" transform="translate(98,115)"/>
<path d="M0 0 C1.32 0.66 2.64 1.32 4 2 C3.34 2 2.68 2 2 2 C2.309375 3.175625 2.309375 3.175625 2.625 4.375 C2.74875 5.24125 2.8725 6.1075 3 7 C2.34 7.66 1.68 8.32 1 9 C0.01 8.34 -0.98 7.68 -2 7 C-1.34 4.69 -0.68 2.38 0 0 Z " fill="#1E2B37" transform="translate(73,111)"/>
<path d="M0 0 C4.42857143 5.14285714 4.42857143 5.14285714 5 9 C3.68 8.67 2.36 8.34 1 8 C0.87625 7.360625 0.7525 6.72125 0.625 6.0625 C0.315625 5.0415625 0.315625 5.0415625 0 4 C-0.66 3.67 -1.32 3.34 -2 3 C-1.34 2.01 -0.68 1.02 0 0 Z " fill="#202933" transform="translate(159,86)"/>
<path d="M0 0 C0.66 0 1.32 0 2 0 C0.75023244 3.65316671 0.32901247 4.78065836 -3 7 C-5.6875 6.125 -5.6875 6.125 -8 5 C-5.08235 3.0549 -3.37462715 2.54723683 0 2 C0 1.34 0 0.68 0 0 Z " fill="#D9E2E9" transform="translate(157,86)"/>
<path d="M0 0 C1.98 0.99 3.96 1.98 6 3 C6 3.66 6 4.32 6 5 C0.25 6.125 0.25 6.125 -2 5 C-1.34 3.35 -0.68 1.7 0 0 Z " fill="#1F2932" transform="translate(151,83)"/>
<path d="M0 0 C0.99 0 1.98 0 3 0 C3 1.65 3 3.3 3 5 C1.02 5.99 1.02 5.99 -1 7 C-0.67 4.69 -0.34 2.38 0 0 Z " fill="#F8FBF5" transform="translate(148,120)"/>
<path d="M0 0 C3.3 0 6.6 0 10 0 C9.67 0.99 9.34 1.98 9 3 C5.7 3 2.4 3 -1 3 C-0.67 2.01 -0.34 1.02 0 0 Z " fill="#0D1827" transform="translate(120,66)"/>
<path d="M0 0 C0.66 0 1.32 0 2 0 C2.33 2.64 2.66 5.28 3 8 C1.68 8 0.36 8 -1 8 C-0.67 5.36 -0.34 2.72 0 0 Z " fill="#9F9F9F" transform="translate(5,174)"/>
<path d="M0 0 C0.66 0.33 1.32 0.66 2 1 C2 2.65 2 4.3 2 6 C0.02 6 -1.96 6 -4 6 C-4 5.01 -4 4.02 -4 3 C-2.68 3 -1.36 3 0 3 C0 2.01 0 1.02 0 0 Z " fill="#7F8289" transform="translate(143,121)"/>
<path d="M0 0 C-1.46666667 4.64444444 -1.46666667 4.64444444 -3.875 6.25 C-5.90387118 6.96607218 -7.89663375 7.54927866 -10 8 C-8.33333333 6.33333333 -6.66666667 4.66666667 -5 3 C-4.443125 2.401875 -3.88625 1.80375 -3.3125 1.1875 C-2 0 -2 0 0 0 Z " fill="#DFE6EF" transform="translate(139,109)"/>
<path d="M0 0 C1.9375 0.375 1.9375 0.375 4 1 C4.33 1.66 4.66 2.32 5 3 C2.35261084 4.4606285 1.10551666 5 -2 5 C-1.34 3.35 -0.68 1.7 0 0 Z " fill="#1C2D41" transform="translate(122,104)"/>
<path d="M0 0 C0.5775 0.226875 1.155 0.45375 1.75 0.6875 C0.76 1.0175 -0.23 1.3475 -1.25 1.6875 C-1.724375 2.161875 -2.19875 2.63625 -2.6875 3.125 C-4.40372082 4.84122082 -6.04852582 5.70063226 -8.25 6.6875 C-6.65594781 2.8352072 -4.57967475 -0.63606594 0 0 Z " fill="#D8DEE5" transform="translate(113.25,83.3125)"/>
<path d="M0 0 C0.99 0.33 1.98 0.66 3 1 C3.625 3.375 3.625 3.375 4 6 C3.34 6.66 2.68 7.32 2 8 C1.01 7.67 0.02 7.34 -1 7 C-0.67 4.69 -0.34 2.38 0 0 Z " fill="#0E1A2A" transform="translate(102,82)"/>
<path d="M0 0 C0.763125 0.20625 1.52625 0.4125 2.3125 0.625 C2.3125 1.945 2.3125 3.265 2.3125 4.625 C0.9925 4.955 -0.3275 5.285 -1.6875 5.625 C-1.3575 4.635 -1.0275 3.645 -0.6875 2.625 C-2.3375 2.295 -3.9875 1.965 -5.6875 1.625 C-2.6875 -0.375 -2.6875 -0.375 0 0 Z " fill="#36404C" transform="translate(147.6875,81.375)"/>
<path d="M0 0 C6.93 0.495 6.93 0.495 14 1 C14 1.33 14 1.66 14 2 C12.23186888 2.24915939 10.46025018 2.47366632 8.6875 2.6875 C7.70136719 2.81511719 6.71523437 2.94273438 5.69921875 3.07421875 C3 3 3 3 0 0 Z " fill="#091328" transform="translate(131,96)"/>
<path d="M0 0 C0.66 0.33 1.32 0.66 2 1 C1.01 3.31 0.02 5.62 -1 8 C-1.99 7.01 -2.98 6.02 -4 5 C-2.68 3.35 -1.36 1.7 0 0 Z " fill="#2B3341" transform="translate(87,91)"/>
<path d="M0 0 C2.64 0 5.28 0 8 0 C7.6875 1.9375 7.6875 1.9375 7 4 C6.01 4.33 5.02 4.66 4 5 C3.67 4.01 3.34 3.02 3 2 C2.01 1.34 1.02 0.68 0 0 Z " fill="#222E42" transform="translate(116,77)"/>
<path d="M0 0 C2.64 0 5.28 0 8 0 C8 0.33 8 0.66 8 1 C6.35 1 4.7 1 3 1 C3 1.99 3 2.98 3 4 C2.01 4.33 1.02 4.66 0 5 C0 3.35 0 1.7 0 0 Z " fill="#D0D6DC" transform="translate(100,94)"/>
<path d="M0 0 C0.33 0.99 0.66 1.98 1 3 C-2.3 2.67 -5.6 2.34 -9 2 C-9 1.67 -9 1.34 -9 1 C-5.94152152 0.45627049 -3.11227195 0 0 0 Z " fill="#0F111E" transform="translate(138,87)"/>
<path d="M0 0 C0.99 0.66 1.98 1.32 3 2 C2.67 3.32 2.34 4.64 2 6 C1.34 6 0.68 6 0 6 C-0.66 4.35 -1.32 2.7 -2 1 C-1.34 0.67 -0.68 0.34 0 0 Z " fill="#212F3B" transform="translate(130,66)"/>
<path d="M0 0 C0.66 0.33 1.32 0.66 2 1 C1.1875 2.9375 1.1875 2.9375 0 5 C-0.99 5.33 -1.98 5.66 -3 6 C-3.66 5.67 -4.32 5.34 -5 5 C-4.67 3.68 -4.34 2.36 -4 1 C-3.67 1.66 -3.34 2.32 -3 3 C-2.01 2.01 -1.02 1.02 0 0 Z " fill="#DCDFE5" transform="translate(115,116)"/>
<path d="M0 0 C0.78375 0.04125 1.5675 0.0825 2.375 0.125 C1.715 1.445 1.055 2.765 0.375 4.125 C-2.1 3.135 -2.1 3.135 -4.625 2.125 C-2.625 0.125 -2.625 0.125 0 0 Z " fill="#F2F5F7" transform="translate(77.625,98.875)"/>
<path d="M0 0 C0.598125 0.20625 1.19625 0.4125 1.8125 0.625 C1.8125 1.285 1.8125 1.945 1.8125 2.625 C-1.07984315 3.45138376 -3.07492431 3.625 -6.1875 3.625 C-4.74381887 0.73763775 -3.28406529 -0.56298262 0 0 Z " fill="#192C40" transform="translate(98.1875,91.375)"/>
<path d="M0 0 C1.65 0 3.3 0 5 0 C5.33 0.99 5.66 1.98 6 3 C4.02 3 2.04 3 0 3 C0 2.01 0 1.02 0 0 Z " fill="#13233D" transform="translate(125,78)"/>
</svg>
