<?xml version="1.0" encoding="UTF-8"?>
<svg version="1.1" xmlns="http://www.w3.org/2000/svg" width="217" height="232">
<path d="M0 0 C71.61 0 143.22 0 217 0 C217 76.56 217 153.12 217 232 C145.39 232 73.78 232 0 232 C0 155.44 0 78.88 0 0 Z " fill="#FEFEFE" transform="translate(0,0)"/>
<path d="M0 0 C71.61 0 143.22 0 217 0 C217 4.95 217 9.9 217 15 C145.39 15 73.78 15 0 15 C0 10.05 0 5.1 0 0 Z " fill="#282E38" transform="translate(0,217)"/>
<path d="M0 0 C-1.95216435 1.95216435 -3.53199953 2.84826645 -6 4 C-6 4.66 -6 5.32 -6 6 C-5.29617187 5.24783203 -5.29617187 5.24783203 -4.578125 4.48046875 C-0.66734728 2.23473427 2.861018 2.92503518 7.25 3.3125 C8.09046875 3.37373047 8.9309375 3.43496094 9.796875 3.49804688 C11.86570599 3.65085825 13.93305508 3.82350162 16 4 C16 3.34 16 2.68 16 2 C16.66 2 17.32 2 18 2 C18 1.34 18 0.68 18 0 C18.66 0 19.32 0 20 0 C20 1.32 20 2.64 20 4 C20.66 4 21.32 4 22 4 C21.5602809 6.96810389 20.92867788 8.07971295 18.875 10.375 C16.64226419 12.89095624 16.64226419 12.89095624 17.3125 16.125 C17.6528125 17.548125 17.6528125 17.548125 18 19 C17.505 20.485 17.505 20.485 17 22 C17.53169322 24.24639027 17.53169322 24.24639027 18.4375 26.5625 C20 30.82959641 20 30.82959641 20 33 C22.64 33.66 25.28 34.32 28 35 C27.67 35.99 27.34 36.98 27 38 C9.51 38 -7.98 38 -26 38 C-26.495 36.515 -26.495 36.515 -27 35 C-23.535 34.505 -23.535 34.505 -20 34 C-19.938125 32.845 -19.87625 31.69 -19.8125 30.5 C-19.0768541 24.58330513 -16.17428322 19.98791609 -11.8125 16 C-10 15 -10 15 -8 15 C-8.350625 14.319375 -8.70125 13.63875 -9.0625 12.9375 C-10.25277307 9.20797772 -9.9108266 6.78343356 -9 3 C-6.72791219 -0.70709064 -4.07905359 -0.27193691 0 0 Z " fill="#F8F3EF" transform="translate(70,76)"/>
<path d="M0 0 C1.62808594 -0.05607422 1.62808594 -0.05607422 3.2890625 -0.11328125 C12.28527923 -0.21226163 12.28527923 -0.21226163 16.00390625 2.61328125 C18.25 5.375 18.25 5.375 18.79296875 7.69140625 C18.18768871 11.51597796 17.77701951 13.76812905 15.1875 16.75 C11.6175714 18.72485412 8.11446708 20.06501116 4.25 21.375 C4.58 23.685 4.91 25.995 5.25 28.375 C4.59 28.705 3.93 29.035 3.25 29.375 C2.59227572 32.40434491 2.59227572 32.40434491 2.25 35.375 C-3.23946087 36.49529814 -6.58430559 36.16717969 -11.75 34.375 C-12.4375 31.0625 -12.4375 31.0625 -12.75 27.375 C-11.19565151 25.20602352 -10.13045371 24.4835073 -7.55859375 23.75 C-5.97532391 23.49959818 -4.39199028 23.24959945 -2.80859375 23 C-0.37388685 22.49876708 -0.37388685 22.49876708 1.25 19.375 C0.59 19.375 -0.07 19.375 -0.75 19.375 C-0.75 18.385 -0.75 17.395 -0.75 16.375 C-1.41 17.035 -2.07 17.695 -2.75 18.375 C-7.13744101 19.11629652 -10.76808303 18.86595849 -14.75 16.875 C-17.43109473 13.52363158 -18.20830154 10.65248102 -17.75 6.375 C-13.21960851 -0.96735861 -7.90147852 0.10177548 0 0 Z " fill="#F7E6E6" transform="translate(155.75,95.625)"/>
<path d="M0 0 C3.63 0 7.26 0 11 0 C11.33 0.66 11.66 1.32 12 2 C12.845625 1.67 13.69125 1.34 14.5625 1 C18.36487737 -0.10614614 21.06476276 -0.50084838 25 0 C27.93052231 1.99524923 29.64521503 3.42836485 30.4453125 6.97265625 C30.63409202 10.33922437 30.25759307 12.59815481 28.4375 15.4375 C25.19100111 17.51858903 22.84752461 17.93249957 19 18 C16.0625 16.6875 16.0625 16.6875 14 15 C14 14.34 14 13.68 14 13 C10.57352289 14.14215904 9.29385328 15.24737607 7 18 C6.20318682 20.64184541 6.20318682 20.64184541 6 23 C5.34 23 4.68 23 4 23 C4 23.66 4 24.32 4 25 C4.66 25 5.32 25 6 25 C6 25.66 6 26.32 6 27 C5.34 27 4.68 27 4 27 C4 29.64 4 32.28 4 35 C3.01 35 2.02 35 1 35 C0.80327635 33.27185839 0.61803201 31.54240803 0.4375 29.8125 C0.33308594 28.84957031 0.22867188 27.88664062 0.12109375 26.89453125 C0.00248381 24.05937102 0.41691897 21.75861026 1 19 C0.67 18.67 0.34 18.34 0 18 C-0.08631874 16.65732587 -0.10706473 15.31025678 -0.09765625 13.96484375 C-0.09443359 13.15595703 -0.09121094 12.34707031 -0.08789062 11.51367188 C-0.07951172 10.66353516 -0.07113281 9.81339844 -0.0625 8.9375 C-0.05798828 8.08349609 -0.05347656 7.22949219 -0.04882812 6.34960938 C-0.03700373 4.23304337 -0.01906769 2.11651315 0 0 Z " fill="#FCF4F0" transform="translate(106,96)"/>
<path d="M0 0 C2.1519437 3.22791555 2.20086443 4.28400809 2 8 C2.94875 7.34 3.8975 6.68 4.875 6 C8 4 8 4 10 4 C10 4.99 10 5.98 10 7 C11.98 6.01 13.96 5.02 16 4 C16 8.62 16 13.24 16 18 C17.464375 17.95875 18.92875 17.9175 20.4375 17.875 C25.52486236 17.86048541 30.10441417 18.67559031 35 20 C34.505 21.485 34.505 21.485 34 23 C16.51 23 -0.98 23 -19 23 C-19.33 22.01 -19.66 21.02 -20 20 C-14.21642935 17.98832325 -9.09781001 17.77915376 -3 18 C-2.95101562 17.11957031 -2.90203125 16.23914063 -2.8515625 15.33203125 C-2.77679688 14.17058594 -2.70203125 13.00914063 -2.625 11.8125 C-2.55539063 10.66394531 -2.48578125 9.51539062 -2.4140625 8.33203125 C-2.02490426 5.20040883 -1.3190149 2.84714191 0 0 Z " fill="#FDF3F3" transform="translate(63,91)"/>
<path d="M0 0 C71.61 0 143.22 0 217 0 C217 0.33 217 0.66 217 1 C156.94 1.33 96.88 1.66 35 2 C37.475 3.98 37.475 3.98 40 6 C39.67 6.99 39.34 7.98 39 9 C38.34 9 37.68 9 37 9 C37 9.66 37 10.32 37 11 C36.01 11.33 35.02 11.66 34 12 C33.01 11.34 32.02 10.68 31 10 C30.67 10.33 30.34 10.66 30 11 C26.33655389 11.13568319 23.49384279 11.16461426 20 10 C18.33157466 10.32441604 16.66519519 10.65939189 15 11 C12.66698014 11.03824623 10.33288492 11.04574284 8 11 C8.33 9.35 8.66 7.7 9 6 C9.66 6 10.32 6 11 6 C11 4.68 11 3.36 11 2 C13.64 2 16.28 2 19 2 C12.73 1.67 6.46 1.34 0 1 C0 0.67 0 0.34 0 0 Z " fill="#979AA0" transform="translate(0,217)"/>
<path d="M0 0 C0.99 0 1.98 0 3 0 C3.20625 0.78375 3.4125 1.5675 3.625 2.375 C5.47193984 5.90097605 7.32780447 5.8280227 11 7 C11.875 9.125 11.875 9.125 12 11 C14.475 11.495 14.475 11.495 17 12 C17 11.34 17 10.68 17 10 C18.98 9.67 20.96 9.34 23 9 C23 9.99 23 10.98 23 12 C23.66 12 24.32 12 25 12 C25 12.66 25 13.32 25 14 C24.34 14 23.68 14 23 14 C23 15.65 23 17.3 23 19 C23.66 19 24.32 19 25 19 C25 19.66 25 20.32 25 21 C22.66666667 21 20.33333333 21 18 21 C17.67 21.33 17.34 21.66 17 22 C11.77419355 22.23225806 11.77419355 22.23225806 9.125 21.4375 C6.77768145 20.95422853 5.34056934 21.25566064 3 21.6875 C0.90625 22.0078125 0.90625 22.0078125 -1 22 C-3.5 20.0625 -3.5 20.0625 -5 18 C-5.66 19.32 -6.32 20.64 -7 22 C-7 19.36 -7 16.72 -7 14 C-6.34 14 -5.68 14 -5 14 C-5 13.34 -5 12.68 -5 12 C-5.66 12 -6.32 12 -7 12 C-7 11.34 -7 10.68 -7 10 C-6.34 10 -5.68 10 -5 10 C-5 8.35 -5 6.7 -5 5 C-4.360625 4.731875 -3.72125 4.46375 -3.0625 4.1875 C-0.66868314 3.11332248 -0.66868314 3.11332248 0 0 Z " fill="#F7F7F1" transform="translate(117,109)"/>
<path d="M0 0 C8.25 0 16.5 0 25 0 C25 0.33 25 0.66 25 1 C18.565 1.495 18.565 1.495 12 2 C11.67 2.99 11.34 3.98 11 5 C9.4375 6.6875 9.4375 6.6875 8 8 C10.475 8.99 10.475 8.99 13 10 C13.33 9.01 13.66 8.02 14 7 C14.66 7.66 15.32 8.32 16 9 C16.99 9.33 17.98 9.66 19 10 C19.33 9.01 19.66 8.02 20 7 C20.66 7 21.32 7 22 7 C22.33 7.66 22.66 8.32 23 9 C25.32156597 9.40729228 27.6568787 9.74438677 30 10 C30.33 9.01 30.66 8.02 31 7 C31.928125 7.7425 31.928125 7.7425 32.875 8.5 C34.83880904 10.19222773 34.83880904 10.19222773 37 10 C37 9.34 37 8.68 37 8 C37.99 7.67 38.98 7.34 40 7 C41.00016187 9.00032373 41.49396008 10.83125748 42 13 C38.0523573 14.3158809 34.28910644 14.12300273 30.17578125 14.09765625 C29.31438034 14.0962413 28.45297943 14.09482635 27.56547546 14.09336853 C24.81444831 14.0877714 22.06350256 14.07521946 19.3125 14.0625 C17.4472668 14.05748463 15.58203233 14.05292179 13.71679688 14.04882812 C9.14449989 14.03780292 4.57226375 14.02054027 0 14 C0 9.38 0 4.76 0 0 Z " fill="#282E38" transform="translate(0,218)"/>
<path d="M0 0 C0 4.29 0 8.58 0 13 C-3.95142546 13.06883128 -7.90132632 13.1285718 -11.85302734 13.16479492 C-13.85919374 13.18732251 -15.86516526 13.2254357 -17.87109375 13.26367188 C-19.12792969 13.27333984 -20.38476562 13.28300781 -21.6796875 13.29296875 C-23.42354736 13.31653442 -23.42354736 13.31653442 -25.20263672 13.34057617 C-26.1257666 13.22818604 -27.04889648 13.1157959 -28 13 C-28.66 12.01 -29.32 11.02 -30 10 C-29.34 9.67 -28.68 9.34 -28 9 C-28 8.34 -28 7.68 -28 7 C-17.605 6.505 -17.605 6.505 -7 6 C-14.92 5.67 -22.84 5.34 -31 5 C-31 4.34 -31 3.68 -31 3 C-26.05 2.67 -21.1 2.34 -16 2 C-16 1.67 -16 1.34 -16 1 C-10.62915894 0.31798844 -5.41499441 -0.11521265 0 0 Z " fill="#3B404B" transform="translate(217,219)"/>
<path d="M0 0 C2.9375 2.0625 2.9375 2.0625 5 5 C5.65812497 9.09499984 5.41801815 11.19879854 3.5 14.875 C0.58630257 17.35164281 -1.26816811 17.96283839 -5.03125 18.1875 C-7 18 -7 18 -9.9375 16.5625 C-12.66161593 13.17799233 -13.46409059 10.3315122 -13 6 C-9.4966997 0.32223745 -6.57502891 -0.66864701 0 0 Z " fill="#8B232F" transform="translate(151,96)"/>
<path d="M0 0 C61.71 0 123.42 0 187 0 C187 0.33 187 0.66 187 1 C184.03 1.66 181.06 2.32 178 3 C178 3.33 178 3.66 178 4 C171.07 4 164.14 4 157 4 C156.67 3.34 156.34 2.68 156 2 C155.27701092 2 154.55402184 2 153.80912399 2 C10.5 2 10.5 2 5.25 1.5 C4.26515625 1.4071875 3.2803125 1.314375 2.265625 1.21875 C1.51796875 1.1465625 0.7703125 1.074375 0 1 C0 0.67 0 0.34 0 0 Z " fill="#1A1D24" transform="translate(30,218)"/>
<path d="M0 0 C2.93052231 1.99524923 4.64521503 3.42836485 5.4453125 6.97265625 C5.63409202 10.33922437 5.25759307 12.59815481 3.4375 15.4375 C0.19100111 17.51858903 -2.15247539 17.93249957 -6 18 C-8.94755732 16.65437601 -10.54277272 15.91445456 -12 13 C-12.41334152 9.94127273 -12.47189841 7.05377934 -12 4 C-8.57473068 -0.25563764 -5.29763755 -0.85140604 0 0 Z " fill="#8F2630" transform="translate(131,96)"/>
<path d="M0 0 C1.68854343 2.17098441 3.17773907 4.3057112 4.5625 6.6875 C5.7908468 9.11355864 5.7908468 9.11355864 8 10 C10.10955062 10.19738723 10.10955062 10.19738723 12.4375 10.1875 C13.61119141 10.20876953 13.61119141 10.20876953 14.80859375 10.23046875 C17.29205987 10.14086064 17.29205987 10.14086064 20 8 C20.495 8.99 20.495 8.99 21 10 C20.34 10 19.68 10 19 10 C19 10.66 19 11.32 19 12 C19.66 12 20.32 12 21 12 C20.28125 13.9296875 20.28125 13.9296875 19 16 C16.90625 16.7578125 16.90625 16.7578125 14.5 17.125 C10.82788012 17.64759364 10.82788012 17.64759364 8 20 C7.83318891 23.08347826 7.83318891 23.08347826 8 26 C7.34 26.33 6.68 26.66 6 27 C6 26.34 6 25.68 6 25 C5.34 25 4.68 25 4 25 C4 23.35 4 21.7 4 20 C4.66 20 5.32 20 6 20 C6 19.34 6 18.68 6 18 C5.34 18 4.68 18 4 18 C4 17.01 4 16.02 4 15 C2.02 15.33 0.04 15.66 -2 16 C-2 16.66 -2 17.32 -2 18 C-3.65 17.67 -5.3 17.34 -7 17 C-7 16.34 -7 15.68 -7 15 C-9.11785113 13.88214887 -9.11785113 13.88214887 -12 13 C-12 12.34 -12 11.68 -12 11 C-12.66 11 -13.32 11 -14 11 C-13.67 10.34 -13.34 9.68 -13 9 C-11.6696875 9.309375 -11.6696875 9.309375 -10.3125 9.625 C-6.61966452 10.04305685 -5.05787579 10.12352486 -2 8 C-0.94892088 5.32601115 -0.50674145 2.8561791 0 0 Z " fill="#FCF5F2" transform="translate(136,103)"/>
<path d="M0 0 C1.32 0 2.64 0 4 0 C4 1.32 4 2.64 4 4 C4.85271484 4.185625 4.85271484 4.185625 5.72265625 4.375 C12.36735697 6.14987832 16.41600053 9.0741827 20 15 C21.0601104 18.05728266 21.54597529 20.77137987 22 24 C18.37 24 14.74 24 11 24 C10.67 19.71 10.34 15.42 10 11 C8.35 11.66 6.7 12.32 5 13 C5 12.01 5 11.02 5 10 C4.21625 10.495 3.4325 10.99 2.625 11.5 C0 13 0 13 -2 13 C-2.33 10.36 -2.66 7.72 -3 5 C-2.34 4.67 -1.68 4.34 -1 4 C-0.34786708 1.97536745 -0.34786708 1.97536745 0 0 Z " fill="#9E2931" transform="translate(68,85)"/>
<path d="M0 0 C8.83928571 -0.66964286 8.83928571 -0.66964286 12.625 1.9375 C15.16669922 5.21495425 15.36104614 5.73119612 15.0625 9.625 C14.69035136 12.13165638 14.22576901 13.6715425 12.7890625 15.76171875 C9.14822017 18.28169041 4.22721861 17.14919595 0 17 C0 11.39 0 5.78 0 0 Z " fill="#92252D" transform="translate(159,96)"/>
<path d="M0 0 C8.00360036 -0.46174617 8.00360036 -0.46174617 11.5625 1.1875 C13 3 13 3 13.5 5.5 C13 8 13 8 11.5 9.8125 C8.04311022 11.45452264 4.76218201 11.7494972 1 11 C0.41508789 10.50733643 -0.16982422 10.01467285 -0.77246094 9.50708008 C-3.55339044 7.62559412 -5.30414177 7.57701751 -8.640625 7.48828125 C-9.71054688 7.45283203 -10.78046875 7.41738281 -11.8828125 7.38085938 C-12.99398437 7.35830078 -14.10515625 7.33574219 -15.25 7.3125 C-16.37664063 7.27833984 -17.50328125 7.24417969 -18.6640625 7.20898438 C-21.44260901 7.12656986 -24.22084252 7.05739702 -27 7 C-27 6.01 -27 5.02 -27 4 C-18.75 4 -10.5 4 -2 4 C-1.34 2.68 -0.68 1.36 0 0 Z " fill="#958C70" transform="translate(77,123)"/>
<path d="M0 0 C18.15 0 36.3 0 55 0 C54.67 0.99 54.34 1.98 54 3 C36.51 3 19.02 3 1 3 C0.67 2.01 0.34 1.02 0 0 Z " fill="#9D535A" transform="translate(43,111)"/>
<path d="M0 0 C0 0.99 0 1.98 0 3 C0.66 3 1.32 3 2 3 C2 3.66 2 4.32 2 5 C1.34 5 0.68 5 0 5 C0 6.65 0 8.3 0 10 C0.66 10 1.32 10 2 10 C2 10.66 2 11.32 2 12 C-0.33333333 12 -2.66666667 12 -5 12 C-5.33 12.33 -5.66 12.66 -6 13 C-11.27565392 13.45875252 -11.27565392 13.45875252 -13.875 11.8125 C-15.40659584 9.34492892 -15.42822025 7.85480169 -15 5 C-13.875 3.125 -13.875 3.125 -12 2 C-8.8125 2.3125 -8.8125 2.3125 -6 3 C-6 2.34 -6 1.68 -6 1 C-4 0 -4 0 0 0 Z " fill="#F0EADC" transform="translate(140,118)"/>
<path d="M0 0 C2.31243792 -0.02685412 4.6249627 -0.04632841 6.9375 -0.0625 C8.22527344 -0.07410156 9.51304688 -0.08570312 10.83984375 -0.09765625 C14 0 14 0 15 1 C16.77869726 1.15764405 18.56318476 1.25100677 20.34765625 1.31640625 C21.42724609 1.35830078 22.50683594 1.40019531 23.61914062 1.44335938 C25.32360352 1.50233398 25.32360352 1.50233398 27.0625 1.5625 C28.20267578 1.60568359 29.34285156 1.64886719 30.51757812 1.69335938 C33.34492195 1.79982839 36.17235738 1.90184207 39 2 C39 2.99 39 3.98 39 5 C31.08 5 23.16 5 15 5 C14.67 5.99 14.34 6.98 14 8 C9.38 8 4.76 8 0 8 C0 6.35 0 4.7 0 3 C3.63 3 7.26 3 11 3 C11 2.34 11 1.68 11 1 C7.37 1 3.74 1 0 1 C0 0.67 0 0.34 0 0 Z " fill="#9A8E77" transform="translate(50,116)"/>
<path d="M0 0 C7.26 0 14.52 0 22 0 C22.33 1.32 22.66 2.64 23 4 C20.06127345 6.93872655 17.4763338 6.29169002 13.45703125 6.32226562 C12.48121094 6.31904297 11.50539062 6.31582031 10.5 6.3125 C9.52417969 6.32861328 8.54835937 6.34472656 7.54296875 6.36132812 C6.61097656 6.36197266 5.67898437 6.36261719 4.71875 6.36328125 C3.86216797 6.36626221 3.00558594 6.36924316 2.12304688 6.37231445 C1.42244141 6.24945068 0.72183594 6.12658691 0 6 C-0.66 5.01 -1.32 4.02 -2 3 C-1.34 2.67 -0.68 2.34 0 2 C0 1.34 0 0.68 0 0 Z " fill="#323943" transform="translate(189,226)"/>
<path d="M0 0 C1.0625 1.875 1.0625 1.875 2 4 C1 6 1 6 -1 7 C-1.66 6.67 -2.32 6.34 -3 6 C-5.14246318 5.76497095 -5.14246318 5.76497095 -7.5 5.75 C-8.2940625 5.72421875 -9.088125 5.6984375 -9.90625 5.671875 C-10.5971875 5.78015625 -11.288125 5.8884375 -12 6 C-12.99 7.485 -12.99 7.485 -14 9 C-16.52197266 9.34057617 -16.52197266 9.34057617 -19.6640625 9.29296875 C-20.78554687 9.28330078 -21.90703125 9.27363281 -23.0625 9.26367188 C-24.238125 9.23853516 -25.41375 9.21339844 -26.625 9.1875 C-28.40003906 9.16719727 -28.40003906 9.16719727 -30.2109375 9.14648438 C-33.14107539 9.11103916 -36.07031459 9.06162769 -39 9 C-39 8.67 -39 8.34 -39 8 C-37.87851562 7.96132812 -37.87851562 7.96132812 -36.734375 7.921875 C-35.74953125 7.86515625 -34.7646875 7.8084375 -33.75 7.75 C-32.77546875 7.70359375 -31.8009375 7.6571875 -30.796875 7.609375 C-27.8778597 7.25738299 -27.8778597 7.25738299 -26.17773438 4.98632812 C-23.40244525 2.45496576 -22.06227808 2.53058983 -18.359375 2.609375 C-17.28945312 2.62226562 -16.21953125 2.63515625 -15.1171875 2.6484375 C-14.00601563 2.68195313 -12.89484375 2.71546875 -11.75 2.75 C-10.62335938 2.76804687 -9.49671875 2.78609375 -8.3359375 2.8046875 C-5.55643104 2.85179778 -2.7786466 2.91756639 0 3 C0 2.01 0 1.02 0 0 Z " fill="#EFEDDF" transform="translate(89,118)"/>
<path d="M0 0 C0 5.61 0 11.22 0 17 C-3.3 17 -6.6 17 -10 17 C-8.91707375 11.04390563 -7.87915133 6.81955166 -4 2 C-1 0 -1 0 0 0 Z " fill="#94222D" transform="translate(60,92)"/>
<path d="M0 0 C3.3 0 6.6 0 10 0 C10 1.32 10 2.64 10 4 C8.02 4 6.04 4 4 4 C4 4.99 4 5.98 4 7 C5.98 7 7.96 7 10 7 C10 8.32 10 9.64 10 11 C8.02 11 6.04 11 4 11 C4 13.31 4 15.62 4 18 C2.68 18 1.36 18 0 18 C0 12.06 0 6.12 0 0 Z " fill="#94222D" transform="translate(106,96)"/>
<path d="M0 0 C0.5775 0.4125 1.155 0.825 1.75 1.25 C2.74 1.91 3.73 2.57 4.75 3.25 C4.42 4.24 4.09 5.23 3.75 6.25 C3.09 6.25 2.43 6.25 1.75 6.25 C1.75 6.91 1.75 7.57 1.75 8.25 C0.76 8.58 -0.23 8.91 -1.25 9.25 C-2.24 8.59 -3.23 7.93 -4.25 7.25 C-4.58 7.58 -4.91 7.91 -5.25 8.25 C-8.91344611 8.38568319 -11.75615721 8.41461426 -15.25 7.25 C-15.25 5.6 -15.25 3.95 -15.25 2.25 C-13.9815625 2.064375 -13.9815625 2.064375 -12.6875 1.875 C-9.17787058 1.31754977 -9.17787058 1.31754977 -5.625 0.0625 C-2.25 -0.75 -2.25 -0.75 0 0 Z " fill="#333840" transform="translate(35.25,219.75)"/>
<path d="M0 0 C0 0.99 0 1.98 0 3 C1.98 2.01 3.96 1.02 6 0 C6 3.3 6 6.6 6 10 C1.60587331 10.51695608 -2.57386023 11 -7 11 C-7 11.66 -7 12.32 -7 13 C-7.99 13.33 -8.98 13.66 -10 14 C-10 13.34 -10 12.68 -10 12 C-9.34 12 -8.68 12 -8 12 C-8.061875 11.21625 -8.12375 10.4325 -8.1875 9.625 C-8.125625 8.75875 -8.06375 7.8925 -8 7 C-5 5 -5 5 -3 4 C-3.66 3.34 -4.32 2.68 -5 2 C-2 0 -2 0 0 0 Z " fill="#FDECEC" transform="translate(73,95)"/>
<path d="M0 0 C0.625 1.8125 0.625 1.8125 1 4 C-1 7 -1 7 -3.0234375 7.546875 C-4.18746094 7.64742188 -4.18746094 7.64742188 -5.375 7.75 C-6.53128906 7.86601563 -6.53128906 7.86601563 -7.7109375 7.984375 C-10.01900755 8.00012974 -11.78369025 7.59924081 -14 7 C-19.29482391 6.41960275 -19.29482391 6.41960275 -24 8.5 C-24.33 8.995 -24.66 9.49 -25 10 C-24.69755238 7.20235953 -24.40170639 5.461535 -22.53125 3.3125 C-18.63215706 1.29074811 -15.03724797 1.93401639 -10.75 2.3125 C-9.90953125 2.37373047 -9.0690625 2.43496094 -8.203125 2.49804688 C-6.13429401 2.65085825 -4.06694492 2.82350162 -2 3 C-2 2.34 -2 1.68 -2 1 C-1.34 0.67 -0.68 0.34 0 0 Z " fill="#9E987F" transform="translate(88,77)"/>
<path d="M0 0 C6.9119171 5.40932642 6.9119171 5.40932642 8 9 C8.125 12.25 8.125 12.25 8 15 C5.03 15 2.06 15 -1 15 C-1.02685412 12.68756208 -1.04632841 10.3750373 -1.0625 8.0625 C-1.07410156 6.77472656 -1.08570312 5.48695312 -1.09765625 4.16015625 C-1 1 -1 1 0 0 Z " fill="#9B2026" transform="translate(81,93)"/>
<path d="M0 0 C-2 2 -2 2 -4.0625 2.6875 C-6.43177141 3.96407698 -6.43177141 3.96407698 -6.75 7.625 C-6.8325 8.73875 -6.915 9.8525 -7 11 C-6.01 9.68 -5.02 8.36 -4 7 C-2.35 7.33 -0.7 7.66 1 8 C0.01 8.33 -0.98 8.66 -2 9 C-2.33 10.65 -2.66 12.3 -3 14 C-3.66 14 -4.32 14 -5 14 C-4.34 16.97 -3.68 19.94 -3 23 C-3.66 23 -4.32 23 -5 23 C-5.66 20.69 -6.32 18.38 -7 16 C-7.66 20.95 -8.32 25.9 -9 31 C-9.33 31 -9.66 31 -10 31 C-10 25.72 -10 20.44 -10 15 C-9.34 15 -8.68 15 -8 15 C-8.350625 14.319375 -8.70125 13.63875 -9.0625 12.9375 C-10.25277307 9.20797772 -9.9108266 6.78343356 -9 3 C-6.72791219 -0.70709064 -4.07905359 -0.27193691 0 0 Z " fill="#EAD1CE" transform="translate(70,76)"/>
<path d="M0 0 C2.72869407 0.03287583 5.2966618 0.56397771 8 1 C8 3.97 8 6.94 8 10 C1.375 11.25 1.375 11.25 -2 9 C-2.3125 5.5 -2.3125 5.5 -2 2 C-1.34 1.34 -0.68 0.68 0 0 Z " fill="#9B937D" transform="translate(115,120)"/>
<path d="M0 0 C0.28875 0.804375 0.5775 1.60875 0.875 2.4375 C1.73262568 5.1326468 1.73262568 5.1326468 4 6 C4.33 5.34 4.66 4.68 5 4 C5.99 4 6.98 4 8 4 C7.75 5.875 7.75 5.875 7 8 C3.76286374 10.15809084 1.07462761 10.21606256 -2.75 10.125 C-3.73484375 10.10695312 -4.7196875 10.08890625 -5.734375 10.0703125 C-6.85585938 10.03550781 -6.85585938 10.03550781 -8 10 C-8 9.01 -8 8.02 -8 7 C-7.01 7 -6.02 7 -5 7 C-5.99 6.34 -6.98 5.68 -8 5 C-5.72541886 1.64228499 -4.30291326 0 0 0 Z " fill="#2B323A" transform="translate(47,222)"/>
<path d="M0 0 C2.4375 0.8125 2.4375 0.8125 4.4375 2.8125 C4.8008156 5.64636167 4.7943671 7.21772151 3.3125 9.6875 C0.51598948 11.36540631 -1.49940532 10.56125648 -4.5625 9.8125 C-5.89328101 3.40055513 -5.89328101 3.40055513 -4.4375 0.8125 C-2.5625 -0.1875 -2.5625 -0.1875 0 0 Z " fill="#BDB2A0" transform="translate(148.5625,120.1875)"/>
<path d="M0 0 C3 -0.3125 3 -0.3125 6 0 C8 2 8 2 8.25 5 C8 8 8 8 6 10 C2.375 9.625 2.375 9.625 -1 9 C-1.625 6.1875 -1.625 6.1875 -2 3 C-1.34 2.01 -0.68 1.02 0 0 Z " fill="#FBE9E6" transform="translate(144,100)"/>
<path d="M0 0 C3.0625 0.1875 3.0625 0.1875 5.0625 2.1875 C5.3125 5.1875 5.3125 5.1875 5.0625 8.1875 C3.0625 10.1875 3.0625 10.1875 0.625 10.5 C-1.9375 10.1875 -1.9375 10.1875 -3.8125 9.0625 C-4.9375 7.1875 -4.9375 7.1875 -4.6875 4.0625 C-3.68914628 0.23547742 -3.68914628 0.23547742 0 0 Z " fill="#FAE8E8" transform="translate(126.9375,99.8125)"/>
<path d="M0 0 C4.875 2.75 4.875 2.75 6 5 C6.58608059 12.26739927 6.58608059 12.26739927 4 15.5 C3.01 16.2425 3.01 16.2425 2 17 C1.01 16.34 0.02 15.68 -1 15 C-0.34 14.01 0.32 13.02 1 12 C1.16699232 8.87478167 1.16699232 8.87478167 1 6 C-1.475 5.01 -1.475 5.01 -4 4 C-2.68 2.68 -1.36 1.36 0 0 Z " fill="#961525" transform="translate(130,96)"/>
<path d="M0 0 C3.22914752 -0.02917228 6.45826083 -0.04685663 9.6875 -0.0625 C10.59951172 -0.07087891 11.51152344 -0.07925781 12.45117188 -0.08789062 C13.33740234 -0.09111328 14.22363281 -0.09433594 15.13671875 -0.09765625 C15.94842529 -0.10289307 16.76013184 -0.10812988 17.59643555 -0.11352539 C20.14864673 0.0070209 22.51026137 0.440051 25 1 C25 1.66 25 2.32 25 3 C26.32 3.33 27.64 3.66 29 4 C26.52076199 4.02685095 24.0418116 4.04676547 21.5625 4.0625 C20.85544922 4.07087891 20.14839844 4.07925781 19.41992188 4.08789062 C17.61306441 4.09653588 15.80612397 4.05220011 14 4 C13.67 3.67 13.34 3.34 13 3 C10.65012738 2.76472227 8.29443961 2.58613583 5.9375 2.4375 C4.64714844 2.35371094 3.35679688 2.26992187 2.02734375 2.18359375 C0.52880859 2.09271484 0.52880859 2.09271484 -1 2 C-0.67 1.34 -0.34 0.68 0 0 Z " fill="#F5F5EF" transform="translate(51,114)"/>
<path d="M0 0 C0.99 0.33 1.98 0.66 3 1 C3 3.97 3 6.94 3 10 C5.31 10.66 7.62 11.32 10 12 C9.67 12.99 9.34 13.98 9 15 C2.71904128 14.40745672 2.71904128 14.40745672 0.125 12.9375 C-1.6496511 9.88115644 -2.14901879 6.51968186 -2 3 C-1.34 2.01 -0.68 1.02 0 0 Z " fill="#992A3B" transform="translate(140,99)"/>
<path d="M0 0 C2.64 0 5.28 0 8 0 C8.22126178 2.45779976 8.42750395 4.91527648 8.625 7.375 C8.68945312 8.07367188 8.75390625 8.77234375 8.8203125 9.4921875 C8.96119739 11.32369111 8.98761659 13.16312748 9 15 C8.34 15.66 7.68 16.32 7 17 C6.01 16.67 5.02 16.34 4 16 C3.34 16.66 2.68 17.32 2 18 C-0.125 17.625 -0.125 17.625 -2 17 C-1.195625 16.54625 -0.39125 16.0925 0.4375 15.625 C3.08856572 14.25274335 3.08856572 14.25274335 4 12 C4.40423599 7.71509847 4.45828448 5.67310532 2 2.0625 C1.34 1.381875 0.68 0.70125 0 0 Z " fill="#FCE3DD" transform="translate(151,96)"/>
<path d="M0 0 C6.75 0.875 6.75 0.875 9 2 C8.67 7.28 8.34 12.56 8 18 C11.3 17.67 14.6 17.34 18 17 C18 17.66 18 18.32 18 19 C14.37 19 10.74 19 7 19 C6.67 14.71 6.34 10.42 6 6 C4.35 6.66 2.7 7.32 1 8 C1.020625 7.05125 1.04125 6.1025 1.0625 5.125 C1.22551826 2.09333717 1.22551826 2.09333717 0 0 Z " fill="#993841" transform="translate(72,90)"/>
<path d="M0 0 C0.99 0 1.98 0 3 0 C3.33 1.32 3.66 2.64 4 4 C4.66 4 5.32 4 6 4 C6.33 2.68 6.66 1.36 7 0 C7.99 0 8.98 0 10 0 C8.66666667 4 7.33333333 8 6 12 C4.35 12.33 2.7 12.66 1 13 C1 12.01 1 11.02 1 10 C1.66 10 2.32 10 3 10 C2.01 6.7 1.02 3.4 0 0 Z " fill="#9D927F" transform="translate(162,121)"/>
<path d="M0 0 C1.65 0 3.3 0 5 0 C7 2 7 2 7.25 5 C7 8 7 8 5 10 C3.35 10 1.7 10 0 10 C0 6.7 0 3.4 0 0 Z " fill="#FBE6E4" transform="translate(163,100)"/>
<path d="M0 0 C0 0.33 0 0.66 0 1 C-2.97 1.66 -5.94 2.32 -9 3 C-9 3.33 -9 3.66 -9 4 C-11.79173055 4.02690104 -14.58320348 4.04679053 -17.375 4.0625 C-18.56609375 4.07506836 -18.56609375 4.07506836 -19.78125 4.08789062 C-25.7734375 4.11328125 -25.7734375 4.11328125 -28 3 C-28 2.34 -28 1.68 -28 1 C-9.17995444 -0.14806378 -9.17995444 -0.14806378 0 0 Z " fill="#262931" transform="translate(217,218)"/>
<path d="M0 0 C-0.33 1.32 -0.66 2.64 -1 4 C-1.66 4 -2.32 4 -3 4 C-3.33 2.68 -3.66 1.36 -4 0 C-4.99 0 -5.98 0 -7 0 C-6.505 0.9075 -6.01 1.815 -5.5 2.75 C-4 6 -4 6 -4 10 C-5.65 9.67 -7.3 9.34 -9 9 C-8.67 8.01 -8.34 7.02 -8 6 C-8.66 6 -9.32 6 -10 6 C-10.33 6.99 -10.66 7.98 -11 9 C-11 7.35 -11 5.7 -11 4 C-10.01 3.67 -9.02 3.34 -8 3 C-8 1.68 -8 0.36 -8 -1 C-4.59745511 -2.2151946 -3.06748874 -1.86240388 0 0 Z " fill="#FAF7E7" transform="translate(169,121)"/>
<path d="M0 0 C0 0.99 0 1.98 0 3 C-1.65 3 -3.3 3 -5 3 C-5 3.99 -5 4.98 -5 6 C-3.35 6.33 -1.7 6.66 0 7 C-0.33 7.66 -0.66 8.32 -1 9 C-3.31 9 -5.62 9 -8 9 C-9.32561852 2.61292897 -9.32561852 2.61292897 -7.9375 0 C-5.08594286 -1.47177143 -3.03295907 -0.74138999 0 0 Z " fill="#9A937C" transform="translate(134,121)"/>
<path d="M0 0 C0.99 0 1.98 0 3 0 C3 0.99 3 1.98 3 3 C2.34 3 1.68 3 1 3 C1 3.66 1 4.32 1 5 C1.66 5 2.32 5 3 5 C3 5.66 3 6.32 3 7 C2.34 7 1.68 7 1 7 C1 9.64 1 12.28 1 15 C0.01 15 -0.98 15 -2 15 C-2.33 11.7 -2.66 8.4 -3 5 C-2.34 5 -1.68 5 -1 5 C-0.67 3.35 -0.34 1.7 0 0 Z " fill="#9E9480" transform="translate(109,116)"/>
<path d="M0 0 C2.64 0.33 5.28 0.66 8 1 C8.59732819 3.76264289 9 6.16032769 9 9 C7.02 8.34 5.04 7.68 3 7 C3 6.34 3 5.68 3 5 C1.68 4.67 0.36 4.34 -1 4 C-0.67 2.68 -0.34 1.36 0 0 Z " fill="#9B8D61" transform="translate(76,125)"/>
<path d="M0 0 C0.99 0.33 1.98 0.66 3 1 C2.28125 2.921875 2.28125 2.921875 1 5 C-1.09375 5.828125 -1.09375 5.828125 -3.5 6.25 C-4.2940625 6.39953125 -5.088125 6.5490625 -5.90625 6.703125 C-8 7 -8 7 -10 7 C-10.33 5.68 -10.66 4.36 -11 3 C-8 2 -8 2 -4.9375 1.5 C-2.07680095 1.15956228 -2.07680095 1.15956228 0 0 Z " fill="#F6FEF9" transform="translate(154,114)"/>
<path d="M0 0 C0.66 0.66 1.32 1.32 2 2 C2.99 2.33 3.98 2.66 5 3 C4.67 3.33 4.34 3.66 4 4 C3.63239269 6.32817964 3.29758419 8.6618385 3 11 C2.01 11 1.02 11 0 11 C0 9.68 0 8.36 0 7 C-1.98 7 -3.96 7 -6 7 C-6 6.01 -6 5.02 -6 4 C-4.02 4 -2.04 4 0 4 C0 2.68 0 1.36 0 0 Z " fill="#F5DAD7" transform="translate(116,96)"/>
<path d="M0 0 C8.25 0 16.5 0 25 0 C25 0.33 25 0.66 25 1 C18.565 1.495 18.565 1.495 12 2 C11.67 2.99 11.34 3.98 11 5 C10.34 5 9.68 5 9 5 C9 4.01 9 3.02 9 2 C6.03 2 3.06 2 0 2 C0 1.34 0 0.68 0 0 Z " fill="#1E2128" transform="translate(0,218)"/>
<path d="M0 0 C0.33 0.99 0.66 1.98 1 3 C7.6 3 14.2 3 21 3 C17.84685215 5.10209857 17.13896919 5.2434761 13.55078125 5.1953125 C12.27944336 5.18564453 12.27944336 5.18564453 10.98242188 5.17578125 C10.10134766 5.15902344 9.22027344 5.14226562 8.3125 5.125 C7.41982422 5.11597656 6.52714844 5.10695312 5.60742188 5.09765625 C3.40467686 5.07409748 1.20247412 5.04120329 -1 5 C-0.67 3.35 -0.34 1.7 0 0 Z " fill="#FAF8E8" transform="translate(49,127)"/>
<path d="M0 0 C0.99 0 1.98 0 3 0 C3 0.99 3 1.98 3 3 C3.66 3 4.32 3 5 3 C5 3.66 5 4.32 5 5 C4.34 5 3.68 5 3 5 C3 6.65 3 8.3 3 10 C3.66 10 4.32 10 5 10 C5 10.66 5 11.32 5 12 C3.68 12 2.36 12 1 12 C0.67 9.69 0.34 7.38 0 5 C-0.66 5 -1.32 5 -2 5 C-2 4.34 -2 3.68 -2 3 C-1.34 3 -0.68 3 0 3 C0 2.01 0 1.02 0 0 Z " fill="#9E9880" transform="translate(137,118)"/>
<path d="M0 0 C7.59 0 15.18 0 23 0 C23 0.99 23 1.98 23 3 C15.1683819 3.2700558 7.72720775 2.23107719 0 1 C0 0.67 0 0.34 0 0 Z " fill="#A69983" transform="translate(66,118)"/>
<path d="M0 0 C4.29 0.33 8.58 0.66 13 1 C13 1.66 13 2.32 13 3 C9.37 3 5.74 3 2 3 C2 3.66 2 4.32 2 5 C5.63 5 9.26 5 13 5 C13 5.33 13 5.66 13 6 C9.37 6 5.74 6 2 6 C1.67 6.66 1.34 7.32 1 8 C0.40267181 5.23735711 0 2.83967231 0 0 Z " fill="#F7F1DF" transform="translate(48,116)"/>
<path d="M0 0 C1.08667969 0.29197266 1.08667969 0.29197266 2.1953125 0.58984375 C2.74960937 0.74582031 3.30390625 0.90179688 3.875 1.0625 C3.875 2.3825 3.875 3.7025 3.875 5.0625 C0.245 5.0625 -3.385 5.0625 -7.125 5.0625 C-6.795 3.4125 -6.465 1.7625 -6.125 0.0625 C-3.57797384 -1.21101308 -2.6967055 -0.73941925 0 0 Z " fill="#C2C8CF" transform="translate(15.125,222.9375)"/>
<path d="M0 0 C3.3 0 6.6 0 10 0 C10 1.32 10 2.64 10 4 C7.03 4 4.06 4 1 4 C1 4.66 1 5.32 1 6 C0.01 6.33 -0.98 6.66 -2 7 C-2 6.34 -2 5.68 -2 5 C-1.34 5 -0.68 5 0 5 C0 3.35 0 1.7 0 0 Z " fill="#C28C8F" transform="translate(65,102)"/>
<path d="M0 0 C2.31 0 4.62 0 7 0 C7 1.32 7 2.64 7 4 C5.02 4 3.04 4 1 4 C1 6.31 1 8.62 1 11 C-0.32 10.67 -1.64 10.34 -3 10 C-2.01 10 -1.02 10 0 10 C0 9.01 0 8.02 0 7 C-0.66 7 -1.32 7 -2 7 C-2 6.34 -2 5.68 -2 5 C-1.34 5 -0.68 5 0 5 C0 3.35 0 1.7 0 0 Z " fill="#933C49" transform="translate(109,103)"/>
<path d="M0 0 C1.98 0 3.96 0 6 0 C6 2.31 6 4.62 6 7 C5.01 7.495 5.01 7.495 4 8 C1.875 7.0625 1.875 7.0625 0 6 C0 4.02 0 2.04 0 0 Z " fill="#E3E3E3" transform="translate(180,85)"/>
<path d="M0 0 C0 2.64 0 5.28 0 8 C-2.97 7.505 -2.97 7.505 -6 7 C-6 5.02 -6 3.04 -6 1 C-3.92446352 0.4465236 -2.15634036 0 0 0 Z " fill="#E2E2E2" transform="translate(210,149)"/>
<path d="M0 0 C1.65 0 3.3 0 5 0 C5 0.66 5 1.32 5 2 C5.99 2.33 6.98 2.66 8 3 C8.43177893 9.26079448 7.92739438 12.09075703 4 17 C3.34 16.67 2.68 16.34 2 16 C2.495 15.29875 2.99 14.5975 3.5 13.875 C5.26739304 10.48749667 5.6277457 8.7664742 5 5 C2.62499209 2.12359384 2.62499209 2.12359384 0 0 Z " fill="#F8E2E0" transform="translate(168,96)"/>
<path d="M0 0 C4.44151446 3.28285852 6.89364258 5.34528431 8 11 C7.67 11.99 7.34 12.98 7 14 C6.34 14 5.68 14 5 14 C5 12.35 5 10.7 5 9 C4.34 9 3.68 9 3 9 C3 8.34 3 7.68 3 7 C2.34 7 1.68 7 1 7 C1 5.68 1 4.36 1 3 C0.34 2.34 -0.32 1.68 -1 1 C-0.67 0.67 -0.34 0.34 0 0 Z " fill="#932934" transform="translate(81,93)"/>
<path d="M0 0 C1.99954746 -0.04254356 4.00041636 -0.04080783 6 0 C7 1 7 1 7.0625 3.5625 C7.041875 4.366875 7.02125 5.17125 7 6 C4.69 6 2.38 6 0 6 C0 4.02 0 2.04 0 0 Z " fill="#E3E3E3" transform="translate(155,20)"/>
<path d="M0 0 C0.99 0.66 1.98 1.32 3 2 C3.99 2.33 4.98 2.66 6 3 C6.33 2.01 6.66 1.02 7 0 C7 0.99 7 1.98 7 3 C7.66 3.33 8.32 3.66 9 4 C7.02 4.99 7.02 4.99 5 6 C5 6.33 5 6.66 5 7 C3.02 7 1.04 7 -1 7 C-1.33 6.34 -1.66 5.68 -2 5 C-2.99 4.34 -3.98 3.68 -5 3 C-3.35 3 -1.7 3 0 3 C0 2.01 0 1.02 0 0 Z " fill="#1E252E" transform="translate(13,225)"/>
<path d="M0 0 C0.103125 0.639375 0.20625 1.27875 0.3125 1.9375 C0.6528125 2.9584375 0.6528125 2.9584375 1 4 C1.99 4.33 2.98 4.66 4 5 C4 5.66 4 6.32 4 7 C5.32 7.66 6.64 8.32 8 9 C1.25 8.25 1.25 8.25 -1 6 C-3.43252661 5.53837573 -3.43252661 5.53837573 -6.125 5.375 C-7.03507812 5.30023438 -7.94515625 5.22546875 -8.8828125 5.1484375 C-9.58148438 5.09945312 -10.28015625 5.05046875 -11 5 C-11 4.67 -11 4.34 -11 4 C-8.36 4 -5.72 4 -3 4 C-3 3.34 -3 2.68 -3 2 C-2.01 2 -1.02 2 0 2 C0 1.34 0 0.68 0 0 Z " fill="#A1967E" transform="translate(75,125)"/>
<path d="M0 0 C1.2065625 0.0309375 1.2065625 0.0309375 2.4375 0.0625 C2.4375 1.3825 2.4375 2.7025 2.4375 4.0625 C1.4475 4.5575 1.4475 4.5575 0.4375 5.0625 C-0.21805119 7.58983235 -0.21805119 7.58983235 -0.5625 10.0625 C-1.5525 10.0625 -2.5425 10.0625 -3.5625 10.0625 C-3.58939216 8.58343108 -3.60884621 7.10422517 -3.625 5.625 C-3.63660156 4.80128906 -3.64820313 3.97757812 -3.66015625 3.12890625 C-3.51340586 0.02366796 -3.12550237 0.07623177 0 0 Z " fill="#9E9481" transform="translate(158.5625,119.9375)"/>
<path d="M0 0 C2.97 0.495 2.97 0.495 6 1 C6 2.98 6 4.96 6 7 C4.33388095 7.042721 2.66617115 7.04063832 1 7 C0 6 0 6 -0.0625 2.9375 C-0.041875 1.968125 -0.02125 0.99875 0 0 Z " fill="#E2E2E2" transform="translate(107,192)"/>
<path d="M0 0 C0.33 0 0.66 0 1 0 C1 3.63 1 7.26 1 11 C1.66 11 2.32 11 3 11 C3 11.99 3 12.98 3 14 C4.98 14 6.96 14 9 14 C9.33 14.99 9.66 15.98 10 17 C6.7 17 3.4 17 0 17 C0 11.39 0 5.78 0 0 Z " fill="#781520" transform="translate(159,96)"/>
<path d="M0 0 C0.625 1.8125 0.625 1.8125 1 4 C-1 7 -1 7 -3.1640625 7.51171875 C-3.97617188 7.56972656 -4.78828125 7.62773438 -5.625 7.6875 C-6.85089844 7.78611328 -6.85089844 7.78611328 -8.1015625 7.88671875 C-8.72804688 7.92410156 -9.35453125 7.96148437 -10 8 C-8.68 7.01 -7.36 6.02 -6 5 C-6.66 4.34 -7.32 3.68 -8 3 C-6.02 3 -4.04 3 -2 3 C-2 2.34 -2 1.68 -2 1 C-1.34 0.67 -0.68 0.34 0 0 Z " fill="#A19783" transform="translate(88,77)"/>
<path d="M0 0 C3.71599191 -0.20086443 4.77208445 -0.1519437 8 2 C8 2.66 8 3.32 8 4 C6.741875 4.185625 5.48375 4.37125 4.1875 4.5625 C1.58129396 5.1852218 0.36939111 5.47900211 -1.19921875 7.69140625 C-2.12538373 9.83259076 -2.12538373 9.83259076 -3 13 C-3.33 13 -3.66 13 -4 13 C-4.2253459 9.69492676 -4.34500438 7.60786486 -2.6875 4.6875 C-1 3 -1 3 2 2 C1.34 1.34 0.68 0.68 0 0 Z " fill="#F1EEDE" transform="translate(66,75)"/>
<path d="M0 0 C0.66 0.33 1.32 0.66 2 1 C2.22417836 3.7648665 2.32233508 5.46277487 0.875 7.875 C-1.92151052 9.55290631 -3.93690532 8.74875648 -7 8 C-6.67 7.01 -6.34 6.02 -6 5 C-4.68 5 -3.36 5 -2 5 C-1.34 3.35 -0.68 1.7 0 0 Z " fill="#99937C" transform="translate(151,122)"/>
<path d="M0 0 C0.99 0 1.98 0 3 0 C2.52213868 6.33166249 2.52213868 6.33166249 0.4375 9 C-3.27564549 10.52334174 -6.08212942 9.71827627 -10 9 C-10 8.67 -10 8.34 -10 8 C-7.69 8 -5.38 8 -3 8 C-1.58622659 5.36095629 -0.62759865 2.92879371 0 0 Z " fill="#971F2E" transform="translate(171,103)"/>
<path d="M0 0 C1.98 0 3.96 0 6 0 C6.042721 1.66611905 6.04063832 3.33382885 6 5 C5 6 5 6 1.9375 6.0625 C0.4834375 6.0315625 0.4834375 6.0315625 -1 6 C-0.67 4.02 -0.34 2.04 0 0 Z " fill="#E2E2E2" transform="translate(83,171)"/>
<path d="M0 0 C1.98 0 3.96 0 6 0 C6 1.98 6 3.96 6 6 C4.02 6 2.04 6 0 6 C0 4.02 0 2.04 0 0 Z " fill="#E0E0E0" transform="translate(180,42)"/>
<path d="M0 0 C1.98 0 3.96 0 6 0 C6 1.98 6 3.96 6 6 C4.02 6 2.04 6 0 6 C0 4.02 0 2.04 0 0 Z " fill="#DFDFDF" transform="translate(10,20)"/>
<path d="M0 0 C2.64 0.33 5.28 0.66 8 1 C8 2.65 8 4.3 8 6 C4.95613276 6.08226668 2.92824652 5.97608217 0 5 C0 3.35 0 1.7 0 0 Z " fill="#B9C0C4" transform="translate(20,222)"/>
<path d="M0 0 C0.66 0.66 1.32 1.32 2 2 C3.32 2 4.64 2 6 2 C6 2.99 6 3.98 6 5 C2.7 5 -0.6 5 -4 5 C-4 3.68 -4 2.36 -4 1 C-2.125 0.375 -2.125 0.375 0 0 Z " fill="#FAFBFA" transform="translate(70,105)"/>
<path d="M0 0 C1.98 0 3.96 0 6 0 C6 1.98 6 3.96 6 6 C3.03 5.505 3.03 5.505 0 5 C0 3.35 0 1.7 0 0 Z " fill="#E0E0E0" transform="translate(107,64)"/>
<path d="M0 0 C1.98 0 3.96 0 6 0 C5.67 1.98 5.34 3.96 5 6 C3.35 6 1.7 6 0 6 C0 4.02 0 2.04 0 0 Z " fill="#DFDDE3" transform="translate(59,64)"/>
<path d="M0 0 C-4 4 -4 4 -5.625 5.5625 C-7.23146885 7.15839731 -7.23146885 7.15839731 -9 10 C-8.67 8.02 -8.34 6.04 -8 4 C-8.66 3.67 -9.32 3.34 -10 3 C-6.68152292 -0.06320961 -4.44849969 -0.3033068 0 0 Z " fill="#8D1E24" transform="translate(130,96)"/>
<path d="M0 0 C0.66 1.98 1.32 3.96 2 6 C0.68 5.67 -0.64 5.34 -2 5 C-2 4.34 -2 3.68 -2 3 C-2.66 3 -3.32 3 -4 3 C-3.67 3.99 -3.34 4.98 -3 6 C-4.65 6 -6.3 6 -8 6 C-4.76923077 0 -4.76923077 0 0 0 Z " fill="#B8BEC4" transform="translate(47,222)"/>
<path d="M0 0 C1.32 0 2.64 0 4 0 C4 1.98 4 3.96 4 6 C2.02 6 0.04 6 -2 6 C-1.125 1.125 -1.125 1.125 0 0 Z " fill="#DEDEDE" transform="translate(12,192)"/>
<path d="M0 0 C0.33 1.32 0.66 2.64 1 4 C-3.62 4 -8.24 4 -13 4 C-13 3.34 -13 2.68 -13 2 C-12.22914062 1.93941406 -11.45828125 1.87882812 -10.6640625 1.81640625 C-9.15972656 1.69072266 -9.15972656 1.69072266 -7.625 1.5625 C-6.62726562 1.48128906 -5.62953125 1.40007812 -4.6015625 1.31640625 C-2.02072387 1.15034374 -2.02072387 1.15034374 0 0 Z " fill="#A79A7D" transform="translate(63,120)"/>
<path d="M0 0 C-2 2 -2 2 -4 2.625 C-7.30705846 4.89860269 -7.25815318 8.16712476 -8 12 C-8.66 11.34 -9.32 10.68 -10 10 C-9.81597683 6.62624187 -9.59820495 3.9760186 -7.8125 1.0625 C-5.19357381 -0.47273259 -2.97085195 -0.1980568 0 0 Z " fill="#9A9587" transform="translate(70,76)"/>
<path d="M0 0 C0.2475 0.61875 0.495 1.2375 0.75 1.875 C2.20628639 4.35068687 3.37812506 4.95125002 6 6 C5 7 5 7 3.15234375 7.09765625 C1.1015625 7.06510417 -0.94921875 7.03255208 -3 7 C-3 6.01 -3 5.02 -3 4 C-2.01 4 -1.02 4 0 4 C-0.33 3.34 -0.66 2.68 -1 2 C-0.67 1.34 -0.34 0.68 0 0 Z " fill="#333A43" transform="translate(21,225)"/>
<path d="M0 0 C1.65 0 3.3 0 5 0 C5 1.98 5 3.96 5 6 C3.35 6 1.7 6 0 6 C0 4.02 0 2.04 0 0 Z " fill="#DDDDDD" transform="translate(156,192)"/>
<path d="M0 0 C1.65 0 3.3 0 5 0 C5 1.98 5 3.96 5 6 C3.35 6 1.7 6 0 6 C0 4.02 0 2.04 0 0 Z " fill="#DEDEDE" transform="translate(35,171)"/>
<path d="M0 0 C1.65 0 3.3 0 5 0 C5 1.98 5 3.96 5 6 C3.35 6 1.7 6 0 6 C0 4.02 0 2.04 0 0 Z " fill="#DDDDDD" transform="translate(35,128)"/>
<path d="M0 0 C0.66 0.99 1.32 1.98 2 3 C1.34 4.32 0.68 5.64 0 7 C-0.99 6.67 -1.98 6.34 -3 6 C-3.66 6.66 -4.32 7.32 -5 8 C-7.125 7.625 -7.125 7.625 -9 7 C-7.88625 6.38125 -7.88625 6.38125 -6.75 5.75 C-4.09828315 4.06254382 -2.13325986 2.29127911 0 0 Z " fill="#E7C3C4" transform="translate(158,106)"/>
<path d="M0 0 C0.33 1.32 0.66 2.64 1 4 C-0.32 4.33 -1.64 4.66 -3 5 C-1.35 5.33 0.3 5.66 2 6 C2 6.33 2 6.66 2 7 C-1.3 7 -4.6 7 -8 7 C-8 6.01 -8 5.02 -8 4 C-7.34 4 -6.68 4 -6 4 C-6 3.34 -6 2.68 -6 2 C-3.03 2.495 -3.03 2.495 0 3 C0 2.01 0 1.02 0 0 Z " fill="#A13B44" transform="translate(58,102)"/>
<path d="M0 0 C0.66 2.31 1.32 4.62 2 7 C-0.91482778 7.80967438 -2.46113217 8.21845993 -5.3125 7.0625 C-5.869375 6.711875 -6.42625 6.36125 -7 6 C-5.68 5.34 -4.36 4.68 -3 4 C-3.66 3.34 -4.32 2.68 -5 2 C-2 0 -2 0 0 0 Z " fill="#F9E2E4" transform="translate(73,95)"/>
<path d="M0 0 C1.98 0 3.96 0 6 0 C6 1.65 6 3.3 6 5 C4.02 5 2.04 5 0 5 C0 3.35 0 1.7 0 0 Z " fill="#DEDEDE" transform="translate(180,0)"/>
<path d="M0 0 C3 1 3 1 4 3 C4.33 2.34 4.66 1.68 5 1 C5.66 2.32 6.32 3.64 7 5 C3.25 8 3.25 8 1 8 C0.67 5.36 0.34 2.72 0 0 Z " fill="#8C242A" transform="translate(65,90)"/>
<path d="M0 0 C0 0.66 0 1.32 0 2 C-0.66 2.66 -1.32 3.32 -2 4 C-1.67 4.66 -1.34 5.32 -1 6 C-2.9375 5.6875 -2.9375 5.6875 -5 5 C-5.33 4.01 -5.66 3.02 -6 2 C-8.31 2 -10.62 2 -13 2 C-13 1.67 -13 1.34 -13 1 C-11.58366664 0.83052421 -10.16691467 0.66454493 -8.75 0.5 C-7.56664062 0.36078125 -7.56664062 0.36078125 -6.359375 0.21875 C-4 0 -4 0 0 0 Z " fill="#2F343D" transform="translate(214,219)"/>
<path d="M0 0 C2 2 2 2 2 5 C-0.31 5 -2.62 5 -5 5 C-5 3.68 -5 2.36 -5 1 C-2.625 0.375 -2.625 0.375 0 0 Z " fill="#E6E7EB" transform="translate(88,212)"/>
<path d="M0 0 C2 3 2 3 2 5 C2.66 5.33 3.32 5.66 4 6 C2.68 7.32 1.36 8.64 0 10 C-0.99 9.34 -1.98 8.68 -3 8 C-2.34 7.01 -1.68 6.02 -1 5 C-0.61500109 3.34450469 -0.27206865 1.6777567 0 0 Z " fill="#9D3A41" transform="translate(132,103)"/>
<path d="M0 0 C3.125 -0.1875 3.125 -0.1875 6 0 C6.33 0.66 6.66 1.32 7 2 C3.86650268 3.04449911 3.01031744 2.93423645 0 2 C0.33 3.98 0.66 5.96 1 8 C0.01 8.495 0.01 8.495 -1 9 C-1.625 6.1875 -1.625 6.1875 -2 3 C-1.34 2.01 -0.68 1.02 0 0 Z " fill="#FAE5DF" transform="translate(144,100)"/>
<path d="M0 0 C0.66 0.99 1.32 1.98 2 3 C-0.25 5.5 -0.25 5.5 -3 8 C-4.32 8 -5.64 8 -7 8 C-6.34 7.67 -5.68 7.34 -5 7 C-5.33 6.01 -5.66 5.02 -6 4 C-4.35 3.67 -2.7 3.34 -1 3 C-0.67 2.01 -0.34 1.02 0 0 Z " fill="#F6F4EE" transform="translate(135,127)"/>
<path d="M0 0 C1.98 0 3.96 0 6 0 C6 3 6 6 6 9 C5.01 9.33 4.02 9.66 3 10 C3 7.03 3 4.06 3 1 C2.01 0.67 1.02 0.34 0 0 Z " fill="#F0EBD4" transform="translate(120,120)"/>
<path d="M0 0 C0 0.66 0 1.32 0 2 C-2.30368736 3.06652192 -4.64018187 4.06421005 -7 5 C-7.66 4.67 -8.32 4.34 -9 4 C-8.67 3.01 -8.34 2.02 -8 1 C-5.29120665 -0.35439668 -2.99066732 -0.06501451 0 0 Z " fill="#901D21" transform="translate(150,96)"/>
<path d="M0 0 C3 2 3 2 5 5 C0.25 6 0.25 6 -2 6 C-2 5.34 -2 4.68 -2 4 C-2.99 4.33 -3.98 4.66 -5 5 C-5.66 4.34 -6.32 3.68 -7 3 C-4.69 3 -2.38 3 0 3 C0 2.01 0 1.02 0 0 Z " fill="#1A2128" transform="translate(30,225)"/>
<path d="M0 0 C2.31 0 4.62 0 7 0 C6.34 1.32 5.68 2.64 5 4 C4.34 3.67 3.68 3.34 3 3 C2.67 3.99 2.34 4.98 2 6 C1.34 5.34 0.68 4.68 0 4 C0 2.68 0 1.36 0 0 Z " fill="#F6FCF9" transform="translate(144,102)"/>
<path d="M0 0 C0.66 0 1.32 0 2 0 C2 3.63 2 7.26 2 11 C1.67 10.01 1.34 9.02 1 8 C0.34 8 -0.32 8 -1 8 C-1.04241723 5.66705225 -1.04092937 3.33297433 -1 1 C-0.67 0.67 -0.34 0.34 0 0 Z " fill="#A14044" transform="translate(161,99)"/>
<path d="M0 0 C6.52307692 -0.36923077 6.52307692 -0.36923077 8.9375 1.5 C9.288125 1.995 9.63875 2.49 10 3 C8.02 3.33 6.04 3.66 4 4 C4 3.34 4 2.68 4 2 C2.68 2 1.36 2 0 2 C0 1.34 0 0.68 0 0 Z " fill="#998B68" transform="translate(73,80)"/>
<path d="M0 0 C-0.33 0.99 -0.66 1.98 -1 3 C-1.5775 2.814375 -2.155 2.62875 -2.75 2.4375 C-5.20692525 1.95976454 -6.64397534 2.24270636 -9 3 C-9.33 2.01 -9.66 1.02 -10 0 C-6.7169902 -1.6415049 -3.57454967 -0.51888624 0 0 Z " fill="#292C34" transform="translate(33,219)"/>
<path d="M0 0 C0.66 0 1.32 0 2 0 C2 2.31 2 4.62 2 7 C2.99 7.33 3.98 7.66 5 8 C2.69 8.33 0.38 8.66 -2 9 C-2 5.61976483 -1.12544378 3.16531063 0 0 Z " fill="#F0E8D9" transform="translate(153,123)"/>
<path d="M0 0 C0.66 0.99 1.32 1.98 2 3 C1.67 3.33 1.34 3.66 1 4 C0.95919217 5.99958364 0.95745644 8.00045254 1 10 C0.01 10.495 0.01 10.495 -1 11 C-1 10.34 -1 9.68 -1 9 C-1.66 9 -2.32 9 -3 9 C-3 7.35 -3 5.7 -3 4 C-2.34 4 -1.68 4 -1 4 C-0.67 2.68 -0.34 1.36 0 0 Z " fill="#F7F1E3" transform="translate(143,119)"/>
<path d="M0 0 C1.32 0.66 2.64 1.32 4 2 C4 3.65 4 5.3 4 7 C2.02 7.33 0.04 7.66 -2 8 C-2 7.34 -2 6.68 -2 6 C-1.01 5.34 -0.02 4.68 1 4 C0.34 3.01 -0.32 2.02 -1 1 C-0.67 0.67 -0.34 0.34 0 0 Z " fill="#F8F7F4" transform="translate(128,100)"/>
<path d="M0 0 C1.65 0 3.3 0 5 0 C5 1.65 5 3.3 5 5 C3.35 5 1.7 5 0 5 C0 3.35 0 1.7 0 0 Z " fill="#DCDCDC" transform="translate(11,64)"/>
<path d="M0 0 C1.98 0 3.96 0 6 0 C6 1.65 6 3.3 6 5 C3.03 4.505 3.03 4.505 0 4 C0 2.68 0 1.36 0 0 Z " fill="#DEDEDE" transform="translate(83,0)"/>
<path d="M0 0 C1.65 0.99 3.3 1.98 5 3 C4.01 3.33 3.02 3.66 2 4 C1.67 4.66 1.34 5.32 1 6 C-1.475 5.01 -1.475 5.01 -4 4 C-2.68 2.68 -1.36 1.36 0 0 Z " fill="#9E373D" transform="translate(130,96)"/>
<path d="M0 0 C-0.8125 1.9375 -0.8125 1.9375 -2 4 C-2.99 4.33 -3.98 4.66 -5 5 C-5.33 4.34 -5.66 3.68 -6 3 C-6.99 2.34 -7.98 1.68 -9 1 C-5.8035914 -0.06546953 -3.34252724 -0.07427838 0 0 Z " fill="#A1967B" transform="translate(90,129)"/>
<path d="M0 0 C1.32 0.66 2.64 1.32 4 2 C4 3.32 4 4.64 4 6 C1.07120629 5.37240135 -1.36095629 4.41377341 -4 3 C-2.68 2.67 -1.36 2.34 0 2 C0 1.34 0 0.68 0 0 Z " fill="#A53745" transform="translate(150,96)"/>
<path d="M0 0 C2.475 0.495 2.475 0.495 5 1 C5.625 2.875 5.625 2.875 6 5 C4 7 4 7 1 8 C1.875 3.25 1.875 3.25 3 1 C2.01 0.67 1.02 0.34 0 0 Z " fill="#F3EFE6" transform="translate(169,120)"/>
<path d="M0 0 C-0.33 1.98 -0.66 3.96 -1 6 C-2.32 6 -3.64 6 -5 6 C-4.625 3.5625 -4.625 3.5625 -4 1 C-2 0 -2 0 0 0 Z " fill="#F6FDF6" transform="translate(169,103)"/>
<path d="M0 0 C0.33 0 0.66 0 1 0 C1 2.64 1 5.28 1 8 C1.66 8.33 2.32 8.66 3 9 C2.34 9 1.68 9 1 9 C1 9.66 1 10.32 1 11 C1.66 11 2.32 11 3 11 C3 11.99 3 12.98 3 14 C2.01 14 1.02 14 0 14 C0 9.38 0 4.76 0 0 Z " fill="#7A1023" transform="translate(106,99)"/>
<path d="M0 0 C0.99 0.33 1.98 0.66 3 1 C2.67 3.64 2.34 6.28 2 9 C1.34 9 0.68 9 0 9 C0 6.03 0 3.06 0 0 Z " fill="#A72032" transform="translate(107,98)"/>
<path d="M0 0 C1.051875 0.185625 2.10375 0.37125 3.1875 0.5625 C6.57119882 0.95079331 8.76425888 0.88247485 12 0 C10.375 2 10.375 2 8 4 C4.75 4.25 4.75 4.25 2 4 C2 3.34 2 2.68 2 2 C1.34 2 0.68 2 0 2 C0 1.34 0 0.68 0 0 Z " fill="#F6DDDE" transform="translate(122,112)"/>
<path d="M0 0 C2.475 0.99 2.475 0.99 5 2 C3.84826645 4.46800047 2.95216435 6.04783565 1 8 C0.34 5.69 -0.32 3.38 -1 1 C-0.67 0.67 -0.34 0.34 0 0 Z " fill="#A03143" transform="translate(169,99)"/>
<path d="M0 0 C0.99 0 1.98 0 3 0 C3.33 1.65 3.66 3.3 4 5 C2.35 5 0.7 5 -1 5 C-0.67 3.35 -0.34 1.7 0 0 Z " fill="#B5BCC5" transform="translate(9,223)"/>
<path d="M0 0 C0.99 0.66 1.98 1.32 3 2 C2.34 3.32 1.68 4.64 1 6 C-0.98 6 -2.96 6 -5 6 C-5 5.67 -5 5.34 -5 5 C-3.35 4.67 -1.7 4.34 0 4 C-1.32 3.34 -2.64 2.68 -4 2 C-2.68 1.34 -1.36 0.68 0 0 Z " fill="#DFDACF" transform="translate(133,125)"/>
<path d="M0 0 C1.23556641 0.01740234 1.23556641 0.01740234 2.49609375 0.03515625 C3.32238281 0.04417969 4.14867188 0.05320312 5 0.0625 C5.63808594 0.07410156 6.27617188 0.08570312 6.93359375 0.09765625 C6.93359375 0.75765625 6.93359375 1.41765625 6.93359375 2.09765625 C0.87890625 3.07421875 0.87890625 3.07421875 -1.06640625 3.09765625 C-1.72640625 2.43765625 -2.38640625 1.77765625 -3.06640625 1.09765625 C-2.06640625 0.09765625 -2.06640625 0.09765625 0 0 Z " fill="#A0927C" transform="translate(79.06640625,122.90234375)"/>
<path d="M0 0 C1.98 0 3.96 0 6 0 C5.01 0.33 4.02 0.66 3 1 C2.67 2.65 2.34 4.3 2 6 C1.34 6 0.68 6 0 6 C0 4.02 0 2.04 0 0 Z " fill="#ECD6D2" transform="translate(110,107)"/>
<path d="M0 0 C0.66 0.33 1.32 0.66 2 1 C0.515 4.96 0.515 4.96 -1 9 C-1.66 8.67 -2.32 8.34 -3 8 C-3.1875 5.125 -3.1875 5.125 -3 2 C-2.01 1.34 -1.02 0.68 0 0 Z " fill="#F7D4DB" transform="translate(52,97)"/>
<path d="M0 0 C1.65 0 3.3 0 5 0 C5 1.65 5 3.3 5 5 C4.01 4.67 3.02 4.34 2 4 C1.01 4.495 1.01 4.495 0 5 C0 3.35 0 1.7 0 0 Z " fill="#C1C8CC" transform="translate(29,223)"/>
<path d="M0 0 C1.32 0 2.64 0 4 0 C4.33 1.32 4.66 2.64 5 4 C4.01 4 3.02 4 2 4 C1.34 4.66 0.68 5.32 0 6 C-1.24546405 3.50907189 -0.7767578 2.58919267 0 0 Z " fill="#3A3E47" transform="translate(19,219)"/>
<path d="M0 0 C0.598125 0.350625 1.19625 0.70125 1.8125 1.0625 C1.4825 2.3825 1.1525 3.7025 0.8125 5.0625 C0.1525 5.0625 -0.5075 5.0625 -1.1875 5.0625 C-1.290625 4.423125 -1.39375 3.78375 -1.5 3.125 C-1.726875 2.444375 -1.95375 1.76375 -2.1875 1.0625 C-3.1775 0.7325 -4.1675 0.4025 -5.1875 0.0625 C-2.1875 -0.9375 -2.1875 -0.9375 0 0 Z " fill="#EFE7D6" transform="translate(167.1875,119.9375)"/>
<path d="M0 0 C0.33 0 0.66 0 1 0 C1 1.65 1 3.3 1 5 C-1.31 5.33 -3.62 5.66 -6 6 C-4 4 -2 2 0 0 Z " fill="#FEF4F5" transform="translate(49,105)"/>
<path d="M0 0 C0.99 1.32 1.98 2.64 3 4 C2.67 4.66 2.34 5.32 2 6 C1.01 6 0.02 6 -1 6 C-1.33 6.66 -1.66 7.32 -2 8 C-1.125 2.25 -1.125 2.25 0 0 Z " fill="#8D202A" transform="translate(53,98)"/>
<path d="M0 0 C1.32 0.33 2.64 0.66 4 1 C3.67 2.32 3.34 3.64 3 5 C2.01 5 1.02 5 0 5 C0 3.35 0 1.7 0 0 Z " fill="#F9F7DF" transform="translate(116,123)"/>
<path d="M0 0 C0.99 0.33 1.98 0.66 3 1 C2.67 1.66 2.34 2.32 2 3 C1.01 3.33 0.02 3.66 -1 4 C-1.73323796 6.01508358 -1.73323796 6.01508358 -2 8 C-2.66 7.67 -3.32 7.34 -4 7 C-3.6875 4.625 -3.6875 4.625 -3 2 C-2.01 1.34 -1.02 0.68 0 0 Z " fill="#F2E9E2" transform="translate(110,113)"/>
<path d="M0 0 C1.32 0 2.64 0 4 0 C4 0.66 4 1.32 4 2 C1.69 3.32 -0.62 4.64 -3 6 C-3 5.01 -3 4.02 -3 3 C-2.34 3 -1.68 3 -1 3 C-0.67 2.01 -0.34 1.02 0 0 Z " fill="#FEEEEE" transform="translate(58,89)"/>
<path d="M0 0 C2.475 0.495 2.475 0.495 5 1 C4.67 1.99 4.34 2.98 4 4 C3.34 4 2.68 4 2 4 C1.67 4.66 1.34 5.32 1 6 C0 5 0 5 -0.0625 2.4375 C-0.041875 1.633125 -0.02125 0.82875 0 0 Z " fill="#B0B6BC" transform="translate(35,222)"/>
</svg>
